<?xml version="1.0" encoding="utf-8"?>
<!-- Generator: Adobe Illustrator 25.4.1, SVG Export Plug-In . SVG Version: 6.00 Build 0)  -->
<svg version="1.1" id="Ebene_1" xmlns="http://www.w3.org/2000/svg" xmlns:xlink="http://www.w3.org/1999/xlink" x="0px" y="0px"
	 width="422.971px" height="110px" viewBox="0 0 422.971 110" enable-background="new 0 0 422.971 110" xml:space="preserve">
<g>
	<path fill="#8EBAE5" d="M335.992,86.192h4.445V76.87h2.376c1.791,0,2.563,1.05,2.625,2.779l0.123,4.229
		c0.031,0.863,0.124,1.697,0.556,2.315h4.815v-0.185c-0.833-0.433-0.957-1.636-0.987-3.951c-0.062-4.662-0.525-6.329-3.55-6.73
		v-0.062c2.5-0.524,3.674-2.5,3.674-5.433c0-3.767-2.223-5.681-5.866-5.681h-8.211V86.192z M340.437,67.424h2.099
		c2.006,0,3.088,1.019,3.088,3.057c0,2.376-1.205,3.302-3.335,3.302h-1.852V67.424z"/>
	<path fill="#8EBAE5" d="M270.455,64.151v15.373c0,5.896,3.426,7.1,7.038,7.1c3.611,0,7.039-1.481,7.039-7.1V64.151h-4.445v15.373
		c0,2.192-0.525,3.828-2.594,3.828c-2.068,0-2.593-1.636-2.593-3.828V64.151H270.455z"/>
</g>
<polygon fill="#8EBAE5" points="285.62,64.151 285.62,86.192 289.695,86.192 289.695,70.758 289.756,70.758 295.189,86.192 
	300.252,86.192 300.252,64.151 296.177,64.151 296.177,79.246 296.116,79.246 290.744,64.151 "/>
<rect x="301.395" y="64.151" fill="#8EBAE5" width="4.445" height="22.041"/>
<polygon fill="#8EBAE5" points="306.145,64.151 311.207,86.192 316.918,86.192 321.98,64.151 317.381,64.151 314.109,80.451 
	314.017,80.451 310.899,64.151 "/>
<polygon fill="#8EBAE5" points="322.376,64.151 322.376,86.192 335.002,86.192 335.002,82.55 326.821,82.55 326.821,76.622 
	334.231,76.622 334.231,72.98 326.821,72.98 326.821,67.794 334.693,67.794 334.693,64.151 "/>
<g>
	<path fill="#8EBAE5" d="M350.437,79.309v0.895c0,4.076,1.975,6.422,7.008,6.422c4.815,0,7.655-2.1,7.655-6.762
		c0-2.685-0.865-4.382-4.199-5.834l-3.426-1.481c-1.883-0.803-2.284-1.636-2.284-2.994c0-1.296,0.525-2.563,2.531-2.563
		c1.697,0,2.408,1.204,2.408,3.273h4.26v-0.618c0-4.229-2.872-5.927-6.823-5.927c-4.198,0-6.821,2.192-6.821,6.482
		c0,3.674,1.821,5.311,5.772,6.668c2.933,1.019,3.952,1.76,3.952,3.767c0,1.852-1.298,2.716-2.655,2.716
		c-2.347,0-2.933-1.327-2.933-3.395v-0.649H350.437z"/>
</g>
<rect x="365.681" y="64.151" fill="#8EBAE5" width="4.445" height="22.041"/>
<polygon fill="#8EBAE5" points="393.215,64.151 390.128,72.671 390.066,72.671 387.165,64.151 370.709,64.151 370.709,67.794 
	375.524,67.794 375.524,86.192 379.97,86.192 379.97,67.794 383.719,67.794 387.874,77.518 387.874,86.192 392.32,86.192 
	392.32,77.518 398.031,64.151 "/>
<g>
	<path fill="#00549F" d="M231.406,62.147h-0.282h-7.084v-2.495V40.171v-0.163h7.069h0.015h4.995c3.276-0.001,6.1,2.12,7.022,4.931
		c0.853,2.605,0.124,5.434-1.802,7.449c0.256,0.693,0.506,1.236,0.743,1.859c0.535,1.233,1.024,2.466,1.559,3.683l1.753,4.217
		h-0.045h-7.424c0,0.004-0.06-0.178-0.119-0.253c-0.297-0.652-0.565-1.351-0.861-2.004l-1.797-4.262
		c-0.713-1.722-1.426-3.35-2.138-5.072c0.889-0.024,1.554,0.143,2.412-0.252c0.604-0.297,1.518-1.035,1.542-2.449
		c-0.024-0.701-0.218-1.232-0.681-1.784c-0.466-0.514-1.139-0.895-2.016-0.907c0,0-2.862-0.001-2.861,0V62.147z"/>
	<path fill="#00549F" d="M308.341,40.008v22.139h-5.751h-1.615V53.12h-0.687h-4.409h-0.061v9.027c-1.336,0-2.776-0.015-4.112,0
		h-3.253V45.131h-5.152v0.534v1.603v7.291v7.588h-0.059h-7.307V52.97v-0.356v-7.483h-5.196v8.033v8.983h-7.587
		c-1.322-3.192-2.717-6.414-4.009-9.592c-0.149-0.668-0.297-1.337-0.49-1.99v11.582h-7.603c-1.507-3.504-2.955-6.938-4.458-10.494
		c-0.52-1.232-0.947-2.234-1.485-3.515l-0.074-0.168l-1.17-2.747l-1.676-3.923c-0.147-0.445-0.384-0.847-0.534-1.292h7.586
		c1.559,3.786,3.132,7.528,4.766,11.255l0.045,0.089c-0.059-0.431-0.194-0.98-0.268-1.395v-6.608c0.014-1.055,0-2.258,0-3.341h7.602
		c0.096,0.241,0.149,0.371,0.223,0.565c0.891,2.093,1.738,4.172,2.629,6.25l1.99,4.529c-0.045-0.476-0.149-0.935-0.209-1.395v-9.949
		h0.609h5.168h18.709h5.315v1.381v6.608h0.357h4.8v-7.989h3.842H308.341z"/>
</g>
<path fill="#8EBAE5" d="M329.706,53.805l2.14-9.954h0.062l2.14,9.954H329.706z M314.947,53.805l2.139-9.954h0.062l2.14,9.954
	H314.947z M334.637,40.006h-5.52l-4.62,17.451l-4.62-17.451h-5.52l-5.861,22.141h4.652l1.023-4.682h5.893l1.022,4.682h6.822
	l1.023-4.682h5.892l1.023,4.682h4.652L334.637,40.006z"/>
<g>
	<path fill="#8EBAE5" d="M353.797,47.56c0-3.21-0.462-7.872-6.822-7.872c-6.667,0-7.502,4.754-7.502,11.453
		c0,6.698,0.835,11.452,7.502,11.452c5.834,0,7.007-4.105,7.007-8.859h-4.445c0,4.754-1.173,5.587-2.778,5.587
		c-1.914,0-2.84-1.204-2.84-7.872c0-6.235,0.525-8.488,2.778-8.488c2.006,0,2.655,1.389,2.655,4.599H353.797z"/>
</g>
<polygon fill="#8EBAE5" points="354.86,62.147 359.324,62.147 359.324,52.318 364.534,52.318 364.534,62.147 368.999,62.147 
	368.999,40.008 364.534,40.008 364.534,48.474 359.324,48.474 359.324,40.008 354.86,40.008 "/>
<polygon fill="#8EBAE5" points="369.967,40.004 369.967,62.147 382.652,62.147 382.652,58.488 374.433,58.488 374.433,52.533 
	381.877,52.533 381.877,48.873 374.433,48.873 374.433,43.663 382.341,43.663 382.341,40.004 "/>
<polygon fill="#8EBAE5" points="383.315,40.008 383.315,62.147 387.408,62.147 387.408,46.643 387.469,46.643 392.927,62.147 
	398.012,62.147 398.012,40.008 393.919,40.008 393.919,55.17 393.857,55.17 388.462,40.008 "/>
<rect x="209.029" y="39.978" fill="#00549F" width="1.023" height="46.398"/>
<g>
	<path fill="#00549F" d="M85.318,41.006v27.609c-11.699-0.101-15.386-1.233-18.371-2.489c-1.929-0.813-3.582-1.868-5.786-3.418
		c-1.016-0.714-1.985-1.473-3.107-2.352c-1.121-0.879-2.392-1.874-3.923-2.984c-3.689-2.674-5.936-3.791-9.488-3.326
		c-0.268,0.035-0.525,0.118-0.785,0.182c-0.082-0.199-0.166-0.401-0.248-0.599c-0.324-0.791-0.642-1.567-0.965-2.32
		c-0.285-0.663-0.569-1.357-0.854-2.052c-1.6-3.9-3.156-7.6-5.22-7.48c-2.059,0.103-3.28,3.191-4.694,8.489
		c-0.429,1.615-0.868,3.288-1.288,4.893c-0.885,3.379-1.72,6.572-2.215,8.175c-0.746,2.419-1.607,4.005-2.245,4.642v-26.97H85.318z
		 M35.061,61.413l-0.853,0.997c-2.917,3.384-5.275,4.878-6.783,5.538c0.913-1.311,1.603-3.246,1.932-4.31
		c0.501-1.626,1.339-4.829,2.227-8.218c0.42-1.604,0.857-3.275,1.287-4.889c1.058-3.968,2.246-7.652,3.751-7.727
		c1.4-0.065,2.955,3.764,4.218,6.843c0.286,0.7,0.573,1.399,0.86,2.069c0.321,0.747,0.637,1.517,0.96,2.302
		c0.069,0.171,0.143,0.348,0.214,0.521C39.956,55.701,37.471,58.585,35.061,61.413 M53.509,68.822H28.013
		c1.656-0.762,4.063-2.364,6.974-5.741l0.856-1.001c2.331-2.734,4.731-5.526,7.422-6.595c1.336,3.203,2.919,6.666,5.404,9.766
		C50.132,67.076,51.891,68.166,53.509,68.822 M49.471,64.608c-2.387-2.978-3.879-6.219-5.215-9.419
		c0.173-0.039,0.343-0.102,0.519-0.124c3.229-0.421,5.224,0.58,8.753,3.14c1.515,1.097,2.777,2.086,3.892,2.96
		c1.133,0.888,2.112,1.655,3.149,2.384c2.263,1.589,3.967,2.677,5.979,3.524c1.559,0.656,3.297,1.28,6.167,1.749H58.307
		C58.307,68.822,52.883,68.865,49.471,64.608 M86.347,86.376L86.347,86.376V68.822V39.979H25.101v46.397H86.347z"/>
	<path fill="#FFFFFF" d="M40.07,82.36h0.988l-0.013-9.535h-1.403l-4.247,8.293l-4.247-8.293h-1.442l0.013,9.535h0.988l-0.013-8.253
		h0.027l4.206,8.253h0.909l4.193-8.24h0.028L40.07,82.36z M47.784,77.951l0.577-0.717l-2.71-2.184l-0.578,0.717L47.784,77.951z
		 M51.862,77.592c0,0.722-0.116,1.34-0.347,1.857c-0.231,0.516-0.539,0.942-0.922,1.275c-0.382,0.334-0.821,0.579-1.315,0.735
		c-0.494,0.155-1.004,0.233-1.529,0.233c-0.525,0-1.035-0.078-1.53-0.233c-0.494-0.156-0.932-0.401-1.314-0.735
		c-0.384-0.333-0.691-0.759-0.922-1.275c-0.232-0.517-0.348-1.135-0.348-1.857c0-0.721,0.116-1.339,0.348-1.856
		c0.231-0.516,0.538-0.942,0.922-1.275c0.382-0.334,0.82-0.579,1.314-0.735c0.495-0.155,1.005-0.233,1.53-0.233
		c0.525,0,1.035,0.078,1.529,0.233c0.494,0.156,0.933,0.401,1.315,0.735c0.383,0.333,0.691,0.759,0.922,1.275
		C51.746,76.253,51.862,76.871,51.862,77.592 M52.503,79.797c0.286-0.625,0.428-1.358,0.428-2.205c0-0.836-0.142-1.568-0.428-2.196
		c-0.285-0.629-0.668-1.151-1.148-1.57c-0.481-0.418-1.033-0.73-1.657-0.935c-0.623-0.204-1.272-0.307-1.949-0.307
		c-0.677,0-1.327,0.103-1.95,0.307c-0.623,0.205-1.176,0.517-1.657,0.935c-0.48,0.419-0.863,0.941-1.147,1.57
		c-0.286,0.628-0.428,1.36-0.428,2.196c0,0.847,0.142,1.58,0.428,2.205c0.284,0.623,0.667,1.143,1.147,1.562
		c0.481,0.418,1.034,0.73,1.657,0.935c0.623,0.204,1.273,0.307,1.95,0.307c0.677,0,1.326-0.103,1.949-0.307
		c0.624-0.205,1.176-0.517,1.657-0.935C51.835,80.94,52.218,80.42,52.503,79.797 M62.239,77.592c0,0.73-0.087,1.343-0.259,1.837
		c-0.174,0.494-0.406,0.89-0.695,1.189c-0.29,0.298-0.628,0.511-1.015,0.64c-0.388,0.13-0.795,0.195-1.222,0.195h-3.607v-7.721
		h3.607c1.103,0,1.912,0.328,2.424,0.982C61.984,75.369,62.239,76.329,62.239,77.592 M63.048,79.469
		c0.173-0.583,0.26-1.209,0.26-1.877c0-1.496-0.356-2.664-1.069-3.506c-0.712-0.841-1.762-1.261-3.152-1.261h-4.634l0.014,9.535
		h4.781c0.668,0,1.255-0.122,1.763-0.367c0.507-0.245,0.931-0.581,1.268-1.008C62.618,80.558,62.874,80.052,63.048,79.469
		 M65.151,82.36h7.693l-0.013-0.907h-6.705v-3.58h6.358v-0.908h-6.358v-3.233h6.598v-0.907h-7.586L65.151,82.36z M80.724,75.549
		h0.988c-0.018-0.57-0.142-1.043-0.374-1.422c-0.231-0.378-0.534-0.681-0.908-0.908c-0.374-0.228-0.794-0.39-1.262-0.488
		c-0.467-0.098-0.946-0.147-1.435-0.147c-0.464,0-0.92,0.046-1.37,0.14c-0.449,0.094-0.852,0.247-1.208,0.461
		c-0.356,0.214-0.644,0.499-0.862,0.855c-0.219,0.356-0.327,0.792-0.327,1.308c0,0.767,0.296,1.337,0.888,1.71
		c0.592,0.374,1.458,0.651,2.597,0.829c0.437,0.07,0.862,0.142,1.276,0.213c0.414,0.071,0.784,0.171,1.109,0.3
		c0.324,0.13,0.587,0.303,0.788,0.522c0.2,0.218,0.301,0.509,0.301,0.875c0,0.373-0.085,0.683-0.254,0.927
		c-0.17,0.246-0.392,0.439-0.668,0.581c-0.276,0.143-0.588,0.243-0.935,0.301s-0.699,0.086-1.055,0.086
		c-0.454,0-0.878-0.035-1.27-0.106c-0.391-0.072-0.732-0.201-1.02-0.387c-0.29-0.187-0.526-0.441-0.708-0.762
		c-0.184-0.32-0.297-0.729-0.341-1.229h-0.988c0.035,0.642,0.166,1.178,0.394,1.609c0.227,0.433,0.532,0.782,0.914,1.049
		c0.383,0.267,0.831,0.456,1.342,0.568c0.513,0.111,1.071,0.167,1.677,0.167c0.462,0,0.93-0.044,1.402-0.133
		c0.472-0.089,0.899-0.248,1.282-0.475c0.383-0.227,0.695-0.532,0.935-0.915c0.241-0.382,0.361-0.868,0.361-1.455
		c0-0.455-0.101-0.829-0.3-1.123c-0.201-0.293-0.464-0.532-0.789-0.714c-0.325-0.183-0.695-0.325-1.108-0.427
		c-0.414-0.103-0.84-0.19-1.276-0.261c-0.579-0.097-1.086-0.194-1.523-0.287c-0.436-0.094-0.799-0.211-1.088-0.354
		c-0.289-0.142-0.508-0.314-0.654-0.514c-0.147-0.201-0.221-0.456-0.221-0.767c0-0.268,0.07-0.506,0.208-0.715
		s0.327-0.385,0.567-0.528c0.241-0.143,0.525-0.252,0.855-0.327c0.329-0.075,0.685-0.113,1.069-0.113
		c0.382,0,0.748,0.03,1.094,0.093c0.348,0.062,0.655,0.172,0.922,0.327c0.267,0.156,0.487,0.365,0.661,0.627
		C80.584,74.803,80.688,75.14,80.724,75.549"/>
	<path fill="#00549F" d="M165.014,84.576v0.194c0,0.266,0.031,0.506,0.092,0.721c0.062,0.215,0.169,0.399,0.322,0.553
		c0.154,0.153,0.361,0.271,0.619,0.353c0.26,0.082,0.591,0.122,0.993,0.122c0.293,0,0.566-0.035,0.818-0.107
		c0.253-0.072,0.47-0.179,0.65-0.322c0.181-0.143,0.322-0.325,0.424-0.542c0.103-0.218,0.154-0.471,0.154-0.757
		c0-0.417-0.092-0.745-0.277-0.988c-0.184-0.242-0.497-0.437-0.941-0.588l-0.849-0.286c-0.238-0.075-0.4-0.167-0.486-0.277
		c-0.085-0.109-0.128-0.232-0.128-0.368c0-0.197,0.067-0.346,0.2-0.445c0.133-0.099,0.288-0.148,0.465-0.148
		c0.233,0,0.394,0.066,0.486,0.199c0.092,0.133,0.138,0.343,0.138,0.629h1.269v-0.225c0-0.498-0.154-0.882-0.46-1.156
		c-0.307-0.273-0.781-0.409-1.422-0.409c-0.362,0-0.67,0.044-0.926,0.133c-0.256,0.089-0.466,0.208-0.629,0.358
		c-0.164,0.151-0.283,0.326-0.358,0.527c-0.075,0.202-0.113,0.414-0.113,0.639c0,0.389,0.099,0.708,0.297,0.957
		c0.198,0.249,0.491,0.442,0.88,0.578l0.992,0.358c0.137,0.054,0.256,0.128,0.358,0.22s0.153,0.227,0.153,0.404
		c0,0.218-0.064,0.382-0.194,0.491c-0.129,0.11-0.303,0.164-0.522,0.164c-0.238,0-0.42-0.074-0.547-0.22
		c-0.126-0.146-0.189-0.34-0.189-0.578v-0.184H165.014z M157.423,86.376h1.412v-3.621c0-0.328,0.067-0.566,0.2-0.716
		c0.133-0.151,0.312-0.225,0.537-0.225c0.198,0,0.339,0.061,0.424,0.184c0.086,0.123,0.128,0.299,0.128,0.532v3.846h1.412v-3.621
		c0-0.328,0.066-0.566,0.199-0.716c0.133-0.151,0.312-0.225,0.538-0.225c0.198,0,0.339,0.061,0.424,0.184
		c0.086,0.123,0.128,0.299,0.128,0.532v3.846h1.412v-4c0-0.532-0.111-0.939-0.333-1.222c-0.221-0.284-0.568-0.425-1.038-0.425
		c-0.334,0-0.622,0.074-0.865,0.22c-0.241,0.146-0.417,0.366-0.526,0.66h-0.021c-0.075-0.286-0.223-0.504-0.445-0.655
		c-0.221-0.15-0.496-0.225-0.823-0.225c-0.307,0-0.571,0.054-0.793,0.164c-0.221,0.109-0.421,0.289-0.599,0.542h-0.02v-0.563h-1.351
		V86.376z M153.812,83v-0.215c0-0.129,0.013-0.258,0.036-0.388c0.025-0.13,0.064-0.248,0.118-0.353
		c0.055-0.106,0.128-0.192,0.22-0.256c0.092-0.064,0.209-0.097,0.353-0.097c0.143,0,0.26,0.028,0.353,0.087
		c0.092,0.058,0.163,0.143,0.214,0.256c0.052,0.112,0.087,0.248,0.108,0.409c0.02,0.16,0.035,0.346,0.041,0.557H153.812z
		 M156.605,83.839v-0.317c0-0.422-0.027-0.806-0.082-1.151c-0.054-0.345-0.156-0.637-0.307-0.88
		c-0.149-0.242-0.356-0.429-0.619-0.562c-0.261-0.133-0.598-0.2-1.007-0.2c-0.477,0-0.86,0.079-1.146,0.236
		c-0.286,0.156-0.506,0.368-0.66,0.634c-0.153,0.266-0.256,0.57-0.307,0.91c-0.051,0.341-0.076,0.696-0.076,1.064
		c0,0.341,0.015,0.688,0.046,1.039c0.03,0.35,0.114,0.668,0.25,0.951c0.137,0.283,0.348,0.513,0.634,0.69
		c0.287,0.177,0.686,0.266,1.197,0.266c0.676,0,1.171-0.171,1.484-0.516c0.314-0.345,0.485-0.837,0.511-1.478h-1.268
		c-0.041,0.347-0.116,0.606-0.225,0.777c-0.109,0.171-0.283,0.256-0.522,0.256c-0.129,0-0.238-0.036-0.327-0.108
		c-0.088-0.071-0.16-0.166-0.215-0.286c-0.054-0.12-0.093-0.256-0.118-0.409c-0.023-0.154-0.036-0.312-0.036-0.476v-0.44H156.605z
		 M149.753,80.872h-0.716v0.962h0.716v3.151c0,0.279,0.016,0.511,0.051,0.696c0.034,0.184,0.097,0.332,0.189,0.445
		c0.092,0.112,0.223,0.192,0.394,0.24c0.17,0.047,0.395,0.072,0.675,0.072c0.164,0,0.319-0.008,0.466-0.021
		c0.146-0.014,0.298-0.028,0.455-0.041v-0.982c-0.048,0.007-0.099,0.012-0.153,0.015c-0.056,0.004-0.11,0.006-0.164,0.006
		c-0.205,0-0.34-0.046-0.404-0.139c-0.066-0.092-0.097-0.247-0.097-0.465v-2.977h0.818v-0.962h-0.818v-1.575h-1.412V80.872z
		 M144.533,84.576v0.194c0,0.266,0.03,0.506,0.092,0.721c0.061,0.215,0.168,0.399,0.322,0.553c0.153,0.153,0.359,0.271,0.619,0.353
		c0.259,0.082,0.589,0.122,0.992,0.122c0.293,0,0.566-0.035,0.819-0.107c0.251-0.072,0.468-0.179,0.649-0.322
		c0.18-0.143,0.322-0.325,0.425-0.542c0.102-0.218,0.153-0.471,0.153-0.757c0-0.417-0.092-0.745-0.276-0.988
		c-0.184-0.242-0.498-0.437-0.941-0.588l-0.849-0.286c-0.24-0.075-0.401-0.167-0.486-0.277c-0.086-0.109-0.128-0.232-0.128-0.368
		c0-0.197,0.066-0.346,0.199-0.445c0.133-0.099,0.288-0.148,0.466-0.148c0.231,0,0.394,0.066,0.486,0.199
		c0.092,0.133,0.138,0.343,0.138,0.629h1.268v-0.225c0-0.498-0.153-0.882-0.46-1.156c-0.307-0.273-0.782-0.409-1.422-0.409
		c-0.362,0-0.67,0.044-0.926,0.133c-0.255,0.089-0.465,0.208-0.629,0.358c-0.164,0.151-0.283,0.326-0.358,0.527
		c-0.076,0.202-0.112,0.414-0.112,0.639c0,0.389,0.098,0.708,0.296,0.957c0.198,0.249,0.491,0.442,0.88,0.578l0.992,0.358
		c0.136,0.054,0.256,0.128,0.358,0.22c0.103,0.092,0.154,0.227,0.154,0.404c0,0.218-0.066,0.382-0.195,0.491
		c-0.129,0.11-0.303,0.164-0.521,0.164c-0.24,0-0.422-0.074-0.548-0.22c-0.126-0.146-0.189-0.34-0.189-0.578v-0.184H144.533z
		 M140.163,88.177h0.573c0.328,0,0.599-0.025,0.814-0.072c0.214-0.048,0.399-0.148,0.552-0.302c0.153-0.153,0.307-0.426,0.46-0.818
		c0.154-0.393,0.251-0.718,0.292-0.977l1.33-5.136h-1.412l-0.716,3.806h-0.021l-0.818-3.806h-1.473l1.545,5.504
		c-0.021,0.246-0.087,0.436-0.2,0.573c-0.112,0.136-0.299,0.205-0.557,0.205c-0.123,0-0.246-0.011-0.369-0.031V88.177z
		 M134.461,84.095v0.297c0,0.675,0.179,1.199,0.537,1.57c0.358,0.371,0.953,0.557,1.785,0.557c0.798,0,1.42-0.181,1.867-0.542
		c0.446-0.361,0.67-0.928,0.67-1.698c0-0.225-0.02-0.43-0.061-0.614s-0.115-0.353-0.22-0.506c-0.106-0.154-0.25-0.297-0.43-0.43
		c-0.181-0.133-0.408-0.261-0.68-0.383l-1.135-0.491c-0.314-0.13-0.519-0.272-0.614-0.425c-0.096-0.153-0.143-0.343-0.143-0.568
		c0-0.109,0.011-0.215,0.035-0.317c0.024-0.102,0.068-0.192,0.133-0.271c0.065-0.079,0.152-0.141,0.261-0.189
		c0.109-0.048,0.246-0.072,0.409-0.072c0.287,0,0.491,0.094,0.614,0.281c0.123,0.188,0.184,0.456,0.184,0.804h1.412v-0.205
		c0-0.348-0.056-0.647-0.169-0.895c-0.112-0.249-0.27-0.453-0.47-0.614c-0.202-0.161-0.44-0.276-0.716-0.348
		c-0.277-0.071-0.578-0.107-0.906-0.107c-0.703,0-1.255,0.177-1.657,0.532c-0.403,0.355-0.604,0.893-0.604,1.616
		c0,0.3,0.037,0.565,0.113,0.793c0.075,0.228,0.192,0.43,0.353,0.603c0.16,0.174,0.359,0.326,0.598,0.456
		c0.239,0.13,0.522,0.248,0.849,0.358c0.246,0.082,0.452,0.161,0.619,0.24c0.167,0.079,0.302,0.166,0.404,0.261
		c0.103,0.095,0.175,0.203,0.22,0.322c0.044,0.12,0.067,0.261,0.067,0.425c0,0.307-0.091,0.534-0.271,0.68
		c-0.181,0.146-0.384,0.22-0.609,0.22c-0.198,0-0.358-0.028-0.481-0.082c-0.122-0.054-0.222-0.13-0.296-0.225
		c-0.076-0.095-0.127-0.213-0.154-0.353c-0.027-0.14-0.041-0.294-0.041-0.465v-0.215H134.461z M127.709,88.177h0.573
		c0.328,0,0.599-0.025,0.813-0.072c0.215-0.048,0.399-0.148,0.553-0.302c0.153-0.153,0.307-0.426,0.46-0.818
		c0.154-0.393,0.251-0.718,0.292-0.977l1.33-5.136h-1.412l-0.716,3.806h-0.021l-0.818-3.806h-1.473l1.545,5.504
		c-0.021,0.246-0.087,0.436-0.2,0.573c-0.112,0.136-0.299,0.205-0.557,0.205c-0.123,0-0.246-0.011-0.369-0.031V88.177z
		 M125.29,80.872v0.614h-0.021c-0.136-0.286-0.31-0.484-0.521-0.593c-0.212-0.11-0.417-0.164-0.614-0.164
		c-0.382,0-0.688,0.085-0.916,0.256c-0.228,0.171-0.402,0.391-0.521,0.66c-0.12,0.269-0.198,0.571-0.236,0.905
		c-0.038,0.335-0.056,0.662-0.056,0.982c0,1.003,0.141,1.717,0.425,2.143c0.283,0.427,0.703,0.64,1.263,0.64
		c0.225,0,0.442-0.062,0.65-0.184c0.207-0.123,0.383-0.287,0.526-0.491h0.021v0.726c0,0.286-0.058,0.523-0.174,0.711
		c-0.116,0.187-0.317,0.281-0.604,0.281c-0.089,0-0.171-0.014-0.25-0.041s-0.152-0.065-0.22-0.112
		c-0.143-0.102-0.215-0.243-0.215-0.42h-1.35c0,0.471,0.161,0.834,0.486,1.09c0.324,0.256,0.785,0.384,1.386,0.384
		c0.825,0,1.414-0.176,1.764-0.527c0.351-0.352,0.527-0.895,0.527-1.632v-5.228H125.29z M123.842,82.862
		c0.018-0.256,0.054-0.46,0.108-0.614c0.054-0.153,0.13-0.264,0.225-0.332c0.095-0.069,0.222-0.102,0.378-0.102
		c0.28,0,0.473,0.14,0.578,0.419c0.106,0.279,0.159,0.754,0.159,1.422c0,0.232-0.012,0.445-0.036,0.639
		c-0.023,0.195-0.064,0.36-0.123,0.497c-0.058,0.136-0.136,0.243-0.235,0.322c-0.099,0.079-0.223,0.117-0.373,0.117
		c-0.151,0-0.271-0.038-0.363-0.117c-0.093-0.079-0.164-0.184-0.215-0.317c-0.051-0.133-0.085-0.285-0.103-0.456
		c-0.017-0.17-0.025-0.35-0.025-0.542C123.817,83.43,123.825,83.118,123.842,82.862 M118.994,86.376h1.412v-3.304
		c0-0.184,0.031-0.34,0.092-0.466c0.062-0.125,0.143-0.228,0.246-0.306c0.102-0.079,0.215-0.136,0.337-0.169
		c0.123-0.034,0.246-0.051,0.369-0.051c0.074,0,0.148,0.002,0.22,0.005c0.071,0.003,0.145,0.008,0.219,0.015v-1.35
		c-0.04-0.007-0.083-0.013-0.127-0.016s-0.087-0.005-0.128-0.005c-0.294,0-0.542,0.08-0.747,0.241
		c-0.205,0.16-0.379,0.373-0.522,0.639h-0.02v-0.737h-1.351V86.376z M115.383,83v-0.215c0-0.129,0.012-0.258,0.036-0.388
		c0.025-0.13,0.063-0.248,0.118-0.353c0.055-0.106,0.127-0.192,0.22-0.256c0.092-0.064,0.209-0.097,0.352-0.097
		c0.144,0,0.261,0.028,0.353,0.087c0.092,0.058,0.164,0.143,0.215,0.256c0.051,0.112,0.087,0.248,0.108,0.409
		c0.02,0.16,0.034,0.346,0.041,0.557H115.383z M118.176,83.839v-0.317c0-0.422-0.027-0.806-0.082-1.151
		c-0.054-0.345-0.156-0.637-0.307-0.88c-0.149-0.242-0.356-0.429-0.619-0.562c-0.262-0.133-0.598-0.2-1.007-0.2
		c-0.477,0-0.86,0.079-1.146,0.236c-0.287,0.156-0.507,0.368-0.66,0.634s-0.256,0.57-0.307,0.91
		c-0.051,0.341-0.077,0.696-0.077,1.064c0,0.341,0.016,0.688,0.046,1.039c0.031,0.35,0.115,0.668,0.251,0.951
		c0.137,0.283,0.348,0.513,0.634,0.69c0.287,0.177,0.686,0.266,1.197,0.266c0.675,0,1.171-0.171,1.484-0.516
		c0.314-0.345,0.485-0.837,0.511-1.478h-1.268c-0.041,0.347-0.116,0.606-0.225,0.777c-0.109,0.171-0.283,0.256-0.522,0.256
		c-0.129,0-0.239-0.036-0.328-0.108c-0.088-0.071-0.159-0.166-0.214-0.286c-0.055-0.12-0.093-0.256-0.118-0.409
		c-0.024-0.154-0.036-0.312-0.036-0.476v-0.44H118.176z M108.974,86.376h1.412v-3.652c0-0.607,0.249-0.91,0.747-0.91
		c0.211,0,0.365,0.056,0.46,0.168c0.096,0.113,0.143,0.312,0.143,0.599v3.795h1.412v-4.082c0-0.552-0.121-0.951-0.363-1.196
		c-0.242-0.246-0.588-0.369-1.039-0.369c-0.307,0-0.579,0.064-0.818,0.189c-0.238,0.126-0.433,0.326-0.583,0.599h-0.021v-0.645
		h-1.35V86.376z M104.012,79.072v7.304h4.185v-1.207h-2.711v-1.964h2.455v-1.207h-2.455v-1.719h2.608v-1.207H104.012z
		 M96.401,86.376h1.412v-3.652c0-0.607,0.25-0.91,0.747-0.91c0.212,0,0.365,0.056,0.46,0.168c0.096,0.113,0.143,0.312,0.143,0.599
		v3.795h1.412v-4.082c0-0.552-0.121-0.951-0.363-1.196c-0.241-0.246-0.588-0.369-1.038-0.369c-0.307,0-0.579,0.064-0.819,0.189
		c-0.238,0.126-0.432,0.326-0.583,0.599h-0.02v-0.645h-1.351V86.376z M93.965,86.376h1.412v-5.504h-1.412V86.376z M93.965,80.197
		h1.412V78.99h-1.412V80.197z"/>
	<path fill="#00549F" d="M190.97,72.977v0.194c0,0.266,0.03,0.506,0.092,0.721c0.061,0.215,0.168,0.399,0.322,0.553
		c0.153,0.153,0.36,0.271,0.619,0.352c0.26,0.082,0.59,0.123,0.992,0.123c0.294,0,0.567-0.036,0.818-0.107
		c0.253-0.072,0.47-0.179,0.65-0.322c0.181-0.144,0.322-0.325,0.425-0.543c0.102-0.218,0.153-0.47,0.153-0.757
		c0-0.416-0.092-0.744-0.276-0.987c-0.184-0.242-0.497-0.438-0.941-0.588l-0.849-0.287c-0.239-0.074-0.4-0.166-0.486-0.276
		c-0.085-0.109-0.128-0.232-0.128-0.368c0-0.197,0.066-0.346,0.199-0.445c0.133-0.099,0.289-0.148,0.466-0.148
		c0.232,0,0.394,0.066,0.486,0.199c0.092,0.133,0.138,0.343,0.138,0.629h1.268v-0.225c0-0.498-0.153-0.883-0.46-1.156
		c-0.307-0.273-0.781-0.409-1.422-0.409c-0.361,0-0.67,0.044-0.926,0.133c-0.256,0.089-0.465,0.208-0.629,0.358
		c-0.164,0.15-0.282,0.325-0.358,0.527c-0.075,0.201-0.113,0.414-0.113,0.639c0,0.389,0.1,0.708,0.297,0.957
		c0.199,0.248,0.491,0.442,0.88,0.578l0.992,0.358c0.137,0.054,0.256,0.128,0.358,0.22c0.103,0.092,0.154,0.227,0.154,0.404
		c0,0.218-0.065,0.381-0.195,0.491c-0.129,0.109-0.302,0.164-0.521,0.164c-0.239,0-0.421-0.074-0.548-0.22
		c-0.126-0.147-0.189-0.34-0.189-0.578v-0.184H190.97z M188.729,74.777h1.412v-5.504h-1.412V74.777z M188.729,68.598h1.412v-1.207
		h-1.412V68.598z M183.853,72.977v0.194c0,0.266,0.031,0.506,0.093,0.721c0.061,0.215,0.168,0.399,0.322,0.553
		c0.153,0.153,0.359,0.271,0.619,0.352c0.259,0.082,0.589,0.123,0.992,0.123c0.293,0,0.566-0.036,0.818-0.107
		c0.252-0.072,0.469-0.179,0.65-0.322c0.18-0.144,0.322-0.325,0.425-0.543c0.102-0.218,0.153-0.47,0.153-0.757
		c0-0.416-0.092-0.744-0.276-0.987c-0.184-0.242-0.498-0.438-0.941-0.588l-0.849-0.287c-0.24-0.074-0.401-0.166-0.486-0.276
		c-0.086-0.109-0.128-0.232-0.128-0.368c0-0.197,0.066-0.346,0.199-0.445c0.133-0.099,0.288-0.148,0.466-0.148
		c0.231,0,0.394,0.066,0.486,0.199c0.092,0.133,0.138,0.343,0.138,0.629h1.268v-0.225c0-0.498-0.153-0.883-0.46-1.156
		c-0.307-0.273-0.782-0.409-1.422-0.409c-0.362,0-0.67,0.044-0.926,0.133c-0.256,0.089-0.465,0.208-0.629,0.358
		c-0.164,0.15-0.283,0.325-0.358,0.527c-0.076,0.201-0.113,0.414-0.113,0.639c0,0.389,0.099,0.708,0.297,0.957
		c0.198,0.248,0.491,0.442,0.88,0.578l0.992,0.358c0.136,0.054,0.256,0.128,0.358,0.22c0.103,0.092,0.154,0.227,0.154,0.404
		c0,0.218-0.066,0.381-0.195,0.491c-0.13,0.109-0.304,0.164-0.521,0.164c-0.24,0-0.422-0.074-0.548-0.22
		c-0.127-0.147-0.189-0.34-0.189-0.578v-0.184H183.853z M179.484,76.577h0.573c0.327,0,0.599-0.023,0.813-0.071
		c0.215-0.048,0.399-0.148,0.553-0.302c0.153-0.153,0.307-0.427,0.46-0.818c0.154-0.392,0.251-0.718,0.292-0.977l1.33-5.136h-1.412
		l-0.716,3.806h-0.021l-0.818-3.806h-1.473l1.545,5.504c-0.021,0.246-0.087,0.437-0.2,0.573c-0.112,0.136-0.299,0.204-0.557,0.204
		c-0.123,0-0.246-0.01-0.369-0.03V76.577z M177.002,74.777h1.412v-7.304h-1.412V74.777z M174.59,73.11
		c0,0.156-0.027,0.288-0.082,0.393c-0.054,0.106-0.124,0.193-0.209,0.261c-0.085,0.069-0.179,0.118-0.282,0.149
		c-0.102,0.03-0.201,0.046-0.296,0.046c-0.192,0-0.328-0.075-0.41-0.225c-0.081-0.151-0.122-0.331-0.122-0.543
		c0-0.245,0.061-0.44,0.184-0.583c0.123-0.143,0.327-0.245,0.614-0.307c0.089-0.02,0.187-0.053,0.296-0.097
		c0.11-0.044,0.212-0.104,0.307-0.179V73.11z M173.281,70.961v-0.153c0-0.218,0.054-0.392,0.163-0.522
		c0.11-0.13,0.274-0.194,0.491-0.194c0.239,0,0.408,0.059,0.507,0.179c0.099,0.119,0.148,0.284,0.148,0.496
		c0,0.184-0.041,0.324-0.123,0.419c-0.081,0.095-0.228,0.171-0.439,0.225l-0.798,0.215c-0.246,0.069-0.456,0.146-0.63,0.235
		c-0.173,0.089-0.317,0.2-0.429,0.333c-0.113,0.133-0.197,0.294-0.251,0.481c-0.054,0.187-0.082,0.411-0.082,0.67
		c0,0.184,0.024,0.37,0.072,0.557c0.048,0.188,0.123,0.356,0.225,0.507c0.102,0.15,0.238,0.273,0.409,0.368s0.379,0.143,0.624,0.143
		c0.341,0,0.619-0.048,0.834-0.143c0.215-0.095,0.404-0.286,0.568-0.573h0.02c0.021,0.095,0.043,0.192,0.067,0.292
		c0.023,0.099,0.059,0.192,0.107,0.281h1.35c-0.068-0.164-0.114-0.317-0.138-0.46c-0.023-0.144-0.035-0.345-0.035-0.604v-2.895
		c0-0.246-0.026-0.473-0.077-0.68c-0.051-0.208-0.149-0.387-0.292-0.537c-0.143-0.151-0.345-0.266-0.608-0.348
		s-0.602-0.123-1.018-0.123c-0.266,0-0.517,0.029-0.752,0.087c-0.235,0.058-0.44,0.153-0.614,0.286
		c-0.174,0.133-0.312,0.309-0.414,0.527c-0.103,0.218-0.154,0.484-0.154,0.798v0.133H173.281z M169.111,69.273h-0.716v0.962h0.716
		v3.151c0,0.279,0.017,0.511,0.051,0.695c0.034,0.184,0.097,0.333,0.189,0.445c0.092,0.113,0.223,0.193,0.394,0.241
		c0.171,0.048,0.396,0.071,0.675,0.071c0.164,0,0.32-0.007,0.466-0.02c0.146-0.013,0.299-0.028,0.455-0.041v-0.982
		c-0.048,0.007-0.099,0.012-0.153,0.015c-0.055,0.003-0.11,0.005-0.164,0.005c-0.205,0-0.34-0.046-0.404-0.138
		c-0.065-0.092-0.097-0.247-0.097-0.465v-2.977h0.818v-0.962h-0.818v-1.575h-1.412V69.273z M166.399,73.11
		c0,0.156-0.027,0.288-0.082,0.393c-0.054,0.106-0.124,0.193-0.21,0.261c-0.084,0.069-0.179,0.118-0.281,0.149
		c-0.102,0.03-0.2,0.046-0.297,0.046c-0.19,0-0.327-0.075-0.409-0.225c-0.082-0.151-0.122-0.331-0.122-0.543
		c0-0.245,0.061-0.44,0.184-0.583c0.122-0.143,0.327-0.245,0.613-0.307c0.089-0.02,0.189-0.053,0.297-0.097
		c0.11-0.044,0.212-0.104,0.307-0.179V73.11z M165.09,70.961v-0.153c0-0.218,0.055-0.392,0.163-0.522
		c0.11-0.13,0.273-0.194,0.491-0.194c0.24,0,0.408,0.059,0.507,0.179c0.099,0.119,0.148,0.284,0.148,0.496
		c0,0.184-0.041,0.324-0.123,0.419s-0.228,0.171-0.44,0.225l-0.798,0.215c-0.245,0.069-0.455,0.146-0.629,0.235
		c-0.174,0.089-0.317,0.2-0.429,0.333c-0.113,0.133-0.196,0.294-0.251,0.481c-0.054,0.187-0.082,0.411-0.082,0.67
		c0,0.184,0.025,0.37,0.072,0.557c0.048,0.188,0.122,0.356,0.225,0.507c0.102,0.15,0.239,0.273,0.409,0.368
		c0.171,0.095,0.379,0.143,0.624,0.143c0.342,0,0.619-0.048,0.834-0.143s0.404-0.286,0.568-0.573h0.02
		c0.02,0.095,0.043,0.192,0.067,0.292c0.024,0.099,0.06,0.192,0.107,0.281h1.35c-0.067-0.164-0.113-0.317-0.138-0.46
		c-0.023-0.144-0.036-0.345-0.036-0.604v-2.895c0-0.246-0.025-0.473-0.076-0.68c-0.052-0.208-0.149-0.387-0.292-0.537
		c-0.143-0.151-0.346-0.266-0.609-0.348c-0.261-0.082-0.601-0.123-1.017-0.123c-0.266,0-0.517,0.029-0.752,0.087
		c-0.236,0.058-0.44,0.153-0.614,0.286s-0.312,0.309-0.415,0.527c-0.102,0.218-0.153,0.484-0.153,0.798v0.133H165.09z
		 M162.904,69.938c0-0.266-0.018-0.55-0.056-0.854c-0.037-0.304-0.131-0.586-0.281-0.849c-0.15-0.263-0.377-0.479-0.68-0.65
		c-0.303-0.171-0.718-0.255-1.243-0.255c-0.553,0-0.993,0.094-1.32,0.281s-0.578,0.448-0.752,0.782
		c-0.174,0.335-0.286,0.735-0.338,1.202c-0.051,0.468-0.076,0.977-0.076,1.53c0,0.552,0.025,1.062,0.076,1.529
		c0.052,0.468,0.164,0.868,0.338,1.202c0.174,0.335,0.425,0.596,0.752,0.783s0.767,0.281,1.32,0.281
		c0.484,0,0.878-0.079,1.181-0.235c0.304-0.157,0.539-0.37,0.706-0.639c0.168-0.27,0.281-0.582,0.343-0.936
		c0.061-0.355,0.092-0.73,0.092-1.126h-1.473c0,0.396-0.024,0.714-0.072,0.957c-0.047,0.242-0.112,0.429-0.194,0.562
		s-0.179,0.222-0.292,0.266c-0.112,0.044-0.233,0.067-0.363,0.067c-0.157,0-0.295-0.033-0.414-0.097
		c-0.119-0.065-0.218-0.192-0.297-0.379c-0.078-0.187-0.136-0.452-0.174-0.793c-0.037-0.34-0.056-0.787-0.056-1.34
		c0-0.518,0.014-0.956,0.041-1.314c0.027-0.358,0.075-0.648,0.143-0.87c0.068-0.222,0.163-0.382,0.281-0.481
		c0.12-0.099,0.271-0.148,0.456-0.148c0.334,0,0.564,0.121,0.69,0.363c0.127,0.243,0.189,0.629,0.189,1.161H162.904z
		 M151.039,72.977v0.194c0,0.266,0.03,0.506,0.092,0.721c0.061,0.215,0.168,0.399,0.322,0.553c0.153,0.153,0.359,0.271,0.619,0.352
		c0.259,0.082,0.589,0.123,0.992,0.123c0.293,0,0.566-0.036,0.819-0.107c0.251-0.072,0.468-0.179,0.649-0.322
		c0.18-0.144,0.322-0.325,0.425-0.543c0.102-0.218,0.153-0.47,0.153-0.757c0-0.416-0.092-0.744-0.276-0.987
		c-0.184-0.242-0.498-0.438-0.941-0.588l-0.849-0.287c-0.24-0.074-0.401-0.166-0.486-0.276c-0.086-0.109-0.128-0.232-0.128-0.368
		c0-0.197,0.066-0.346,0.199-0.445c0.133-0.099,0.288-0.148,0.466-0.148c0.231,0,0.394,0.066,0.486,0.199
		c0.092,0.133,0.138,0.343,0.138,0.629h1.268v-0.225c0-0.498-0.153-0.883-0.46-1.156c-0.307-0.273-0.782-0.409-1.422-0.409
		c-0.362,0-0.67,0.044-0.926,0.133c-0.255,0.089-0.465,0.208-0.629,0.358c-0.164,0.15-0.283,0.325-0.358,0.527
		c-0.076,0.201-0.112,0.414-0.112,0.639c0,0.389,0.098,0.708,0.296,0.957c0.198,0.248,0.491,0.442,0.88,0.578l0.992,0.358
		c0.136,0.054,0.256,0.128,0.358,0.22c0.103,0.092,0.154,0.227,0.154,0.404c0,0.218-0.066,0.381-0.195,0.491
		c-0.129,0.109-0.303,0.164-0.521,0.164c-0.24,0-0.422-0.074-0.548-0.22c-0.126-0.147-0.189-0.34-0.189-0.578v-0.184H151.039z
		 M148.893,74.777h1.351v-5.504h-1.412v3.652c0,0.607-0.25,0.911-0.747,0.911c-0.212,0-0.365-0.056-0.46-0.169
		c-0.096-0.112-0.143-0.312-0.143-0.598v-3.796h-1.412v4.082c0,0.552,0.121,0.951,0.363,1.197c0.241,0.245,0.588,0.368,1.038,0.368
		c0.307,0,0.579-0.063,0.819-0.189c0.238-0.126,0.433-0.325,0.583-0.598h0.02V74.777z M142.343,71.248
		c0.013-0.239,0.046-0.443,0.097-0.614c0.051-0.171,0.126-0.304,0.225-0.399c0.099-0.095,0.237-0.143,0.415-0.143
		c0.286,0,0.484,0.15,0.593,0.45c0.108,0.3,0.164,0.795,0.164,1.483c0,0.689-0.056,1.184-0.164,1.483
		c-0.109,0.3-0.307,0.451-0.593,0.451c-0.178,0-0.316-0.048-0.415-0.144c-0.099-0.095-0.174-0.228-0.225-0.399
		c-0.051-0.17-0.084-0.375-0.097-0.613c-0.014-0.239-0.02-0.499-0.02-0.778C142.323,71.746,142.329,71.486,142.343,71.248
		 M141.013,73.294c0.068,0.361,0.184,0.665,0.348,0.91c0.164,0.246,0.385,0.428,0.665,0.547c0.279,0.12,0.63,0.176,1.054,0.169
		c0.402,0,0.741-0.063,1.018-0.189c0.276-0.126,0.499-0.31,0.67-0.552c0.169-0.243,0.292-0.545,0.368-0.906
		c0.075-0.361,0.112-0.777,0.112-1.248c0-0.478-0.034-0.898-0.102-1.263c-0.068-0.366-0.184-0.67-0.348-0.916
		c-0.163-0.245-0.385-0.427-0.665-0.547c-0.28-0.12-0.631-0.176-1.053-0.169c-0.403,0-0.742,0.063-1.018,0.189
		c-0.276,0.126-0.501,0.31-0.67,0.553c-0.171,0.242-0.294,0.544-0.369,0.905c-0.075,0.361-0.112,0.778-0.112,1.248
		C140.911,72.509,140.945,72.933,141.013,73.294 M137.466,71.401v-0.215c0-0.13,0.012-0.259,0.036-0.388
		c0.024-0.13,0.063-0.248,0.118-0.353c0.054-0.106,0.128-0.192,0.22-0.256c0.092-0.065,0.21-0.097,0.353-0.097
		c0.143,0,0.261,0.028,0.353,0.087c0.092,0.058,0.163,0.143,0.215,0.255c0.051,0.113,0.086,0.249,0.107,0.41
		c0.02,0.16,0.034,0.345,0.041,0.557H137.466z M140.259,72.24v-0.317c0-0.423-0.027-0.806-0.082-1.151
		c-0.055-0.345-0.157-0.637-0.307-0.88c-0.15-0.242-0.357-0.429-0.618-0.562c-0.263-0.133-0.599-0.2-1.008-0.2
		c-0.478,0-0.859,0.079-1.146,0.235c-0.286,0.157-0.506,0.369-0.66,0.635c-0.153,0.266-0.255,0.569-0.307,0.91
		c-0.051,0.341-0.076,0.696-0.076,1.064c0,0.341,0.015,0.687,0.046,1.038c0.03,0.351,0.113,0.668,0.25,0.952
		c0.136,0.283,0.348,0.513,0.635,0.69c0.286,0.177,0.685,0.266,1.197,0.266c0.675,0,1.169-0.172,1.483-0.516
		c0.313-0.345,0.484-0.837,0.511-1.479h-1.268c-0.041,0.348-0.117,0.607-0.225,0.778c-0.11,0.171-0.284,0.256-0.522,0.256
		c-0.13,0-0.239-0.036-0.327-0.108c-0.089-0.071-0.161-0.167-0.215-0.286c-0.055-0.12-0.094-0.256-0.118-0.409
		c-0.024-0.154-0.036-0.312-0.036-0.476v-0.44H140.259z M131.057,74.777h1.412v-3.652c0-0.607,0.249-0.911,0.747-0.911
		c0.211,0,0.364,0.057,0.46,0.169c0.095,0.113,0.143,0.312,0.143,0.599v3.795h1.412v-4.082c0-0.552-0.122-0.951-0.363-1.197
		c-0.242-0.245-0.588-0.368-1.038-0.368c-0.307,0-0.58,0.063-0.819,0.189c-0.239,0.126-0.434,0.326-0.583,0.599h-0.02v-0.645h-1.351
		V74.777z M127.446,71.401v-0.215c0-0.13,0.011-0.259,0.036-0.388c0.023-0.13,0.062-0.248,0.118-0.353
		c0.054-0.106,0.127-0.192,0.22-0.256c0.092-0.065,0.209-0.097,0.352-0.097c0.144,0,0.261,0.028,0.353,0.087
		c0.092,0.058,0.164,0.143,0.215,0.255c0.051,0.113,0.087,0.249,0.108,0.41c0.02,0.16,0.033,0.345,0.041,0.557H127.446z
		 M130.239,72.24v-0.317c0-0.423-0.028-0.806-0.082-1.151c-0.055-0.345-0.157-0.637-0.307-0.88c-0.15-0.242-0.357-0.429-0.619-0.562
		c-0.263-0.133-0.598-0.2-1.007-0.2c-0.478,0-0.86,0.079-1.146,0.235c-0.287,0.157-0.507,0.369-0.66,0.635s-0.256,0.569-0.307,0.91
		s-0.077,0.696-0.077,1.064c0,0.341,0.016,0.687,0.046,1.038c0.031,0.351,0.114,0.668,0.251,0.952
		c0.136,0.283,0.348,0.513,0.634,0.69c0.287,0.177,0.686,0.266,1.197,0.266c0.675,0,1.17-0.172,1.484-0.516
		c0.313-0.345,0.483-0.837,0.511-1.479h-1.268c-0.041,0.348-0.117,0.607-0.226,0.778c-0.109,0.171-0.283,0.256-0.521,0.256
		c-0.13,0-0.24-0.036-0.328-0.108c-0.089-0.071-0.16-0.167-0.214-0.286c-0.056-0.12-0.095-0.256-0.118-0.409
		c-0.025-0.154-0.036-0.312-0.036-0.476v-0.44H130.239z M123.824,69.273v0.614h-0.021c-0.137-0.286-0.311-0.484-0.522-0.593
		c-0.211-0.11-0.416-0.164-0.613-0.164c-0.383,0-0.688,0.085-0.916,0.256c-0.229,0.171-0.403,0.391-0.522,0.66
		c-0.119,0.269-0.198,0.57-0.235,0.905c-0.038,0.334-0.056,0.662-0.056,0.982c0,1.003,0.141,1.717,0.424,2.143
		c0.283,0.427,0.704,0.64,1.264,0.64c0.225,0,0.441-0.062,0.649-0.185c0.208-0.122,0.384-0.286,0.527-0.491h0.021v0.727
		c0,0.286-0.059,0.524-0.174,0.711c-0.117,0.187-0.317,0.281-0.604,0.281c-0.089,0-0.173-0.013-0.25-0.041
		c-0.079-0.027-0.153-0.064-0.22-0.112c-0.144-0.103-0.215-0.243-0.215-0.42h-1.351c0,0.471,0.162,0.834,0.486,1.09
		c0.324,0.255,0.786,0.383,1.386,0.383c0.825,0,1.413-0.176,1.765-0.527c0.351-0.35,0.527-0.895,0.527-1.631v-5.228H123.824z
		 M122.376,71.263c0.016-0.256,0.052-0.46,0.108-0.614c0.054-0.153,0.128-0.264,0.225-0.332c0.095-0.069,0.221-0.103,0.378-0.103
		c0.279,0,0.472,0.141,0.578,0.42c0.105,0.279,0.159,0.754,0.159,1.422c0,0.232-0.013,0.445-0.036,0.639
		c-0.025,0.195-0.066,0.36-0.123,0.496c-0.058,0.136-0.137,0.244-0.235,0.323c-0.099,0.078-0.224,0.117-0.374,0.117
		s-0.271-0.039-0.363-0.117c-0.092-0.079-0.163-0.185-0.215-0.318c-0.051-0.133-0.086-0.284-0.102-0.455
		c-0.017-0.171-0.025-0.351-0.025-0.542C122.351,71.831,122.359,71.519,122.376,71.263 M117.329,71.248
		c0.013-0.239,0.046-0.443,0.097-0.614c0.051-0.171,0.126-0.304,0.225-0.399c0.098-0.095,0.236-0.143,0.414-0.143
		c0.287,0,0.484,0.15,0.594,0.45c0.108,0.3,0.163,0.795,0.163,1.483c0,0.689-0.055,1.184-0.163,1.483
		c-0.11,0.3-0.307,0.451-0.594,0.451c-0.178,0-0.316-0.048-0.414-0.144c-0.099-0.095-0.174-0.228-0.225-0.399
		c-0.051-0.17-0.084-0.375-0.097-0.613c-0.015-0.239-0.021-0.499-0.021-0.778C117.308,71.746,117.314,71.486,117.329,71.248
		 M115.999,73.294c0.067,0.361,0.184,0.665,0.348,0.91c0.163,0.246,0.384,0.428,0.664,0.547c0.28,0.12,0.631,0.176,1.054,0.169
		c0.402,0,0.742-0.063,1.018-0.189c0.276-0.126,0.499-0.31,0.67-0.552c0.17-0.243,0.293-0.545,0.368-0.906
		c0.075-0.361,0.113-0.777,0.113-1.248c0-0.478-0.035-0.898-0.102-1.263c-0.069-0.366-0.185-0.67-0.348-0.916
		c-0.164-0.245-0.386-0.427-0.665-0.547c-0.28-0.12-0.631-0.176-1.054-0.169c-0.403,0-0.742,0.063-1.018,0.189
		c-0.276,0.126-0.5,0.31-0.67,0.553c-0.171,0.242-0.293,0.544-0.368,0.905c-0.076,0.361-0.113,0.778-0.113,1.248
		C115.896,72.509,115.93,72.933,115.999,73.294 M112.538,74.777h1.412v-3.304c0-0.184,0.03-0.34,0.092-0.466
		c0.061-0.126,0.143-0.228,0.245-0.307c0.103-0.078,0.215-0.135,0.338-0.168c0.123-0.034,0.245-0.052,0.368-0.052
		c0.075,0,0.148,0.002,0.22,0.005c0.072,0.004,0.144,0.009,0.22,0.016V69.15c-0.041-0.007-0.084-0.012-0.128-0.015
		c-0.045-0.003-0.087-0.005-0.128-0.005c-0.293,0-0.542,0.08-0.747,0.24c-0.204,0.161-0.378,0.374-0.521,0.64h-0.021v-0.737h-1.35
		V74.777z M108.927,71.401v-0.215c0-0.13,0.011-0.259,0.035-0.388c0.024-0.13,0.063-0.248,0.118-0.353
		c0.054-0.106,0.128-0.192,0.22-0.256c0.092-0.065,0.21-0.097,0.353-0.097s0.261,0.028,0.353,0.087
		c0.092,0.058,0.164,0.143,0.215,0.255c0.051,0.113,0.087,0.249,0.107,0.41c0.021,0.16,0.034,0.345,0.041,0.557H108.927z
		 M111.719,72.24v-0.317c0-0.423-0.027-0.806-0.081-1.151c-0.056-0.345-0.158-0.637-0.307-0.88
		c-0.151-0.242-0.357-0.429-0.619-0.562c-0.263-0.133-0.599-0.2-1.008-0.2c-0.478,0-0.859,0.079-1.146,0.235
		c-0.286,0.157-0.506,0.369-0.659,0.635c-0.154,0.266-0.256,0.569-0.307,0.91c-0.051,0.341-0.077,0.696-0.077,1.064
		c0,0.341,0.015,0.687,0.046,1.038s0.114,0.668,0.251,0.952c0.136,0.283,0.347,0.513,0.634,0.69
		c0.286,0.177,0.685,0.266,1.197,0.266c0.675,0,1.169-0.172,1.483-0.516c0.313-0.345,0.484-0.837,0.512-1.479h-1.269
		c-0.041,0.348-0.117,0.607-0.225,0.778c-0.109,0.171-0.283,0.256-0.522,0.256c-0.13,0-0.239-0.036-0.327-0.108
		c-0.089-0.071-0.161-0.167-0.215-0.286c-0.055-0.12-0.094-0.256-0.118-0.409c-0.024-0.154-0.035-0.312-0.035-0.476v-0.44H111.719z
		 M104.866,69.273h-0.716v0.962h0.716v3.151c0,0.279,0.018,0.511,0.052,0.695c0.033,0.184,0.097,0.333,0.189,0.445
		c0.092,0.113,0.223,0.193,0.394,0.241c0.17,0.048,0.396,0.071,0.675,0.071c0.163,0,0.319-0.007,0.465-0.02
		c0.147-0.013,0.299-0.028,0.456-0.041v-0.982c-0.049,0.007-0.1,0.012-0.154,0.015s-0.109,0.005-0.164,0.005
		c-0.204,0-0.339-0.046-0.404-0.138c-0.064-0.092-0.097-0.247-0.097-0.465v-2.977h0.819v-0.962h-0.819v-1.575h-1.412V69.273z
		 M100.918,71.401v-0.215c0-0.13,0.012-0.259,0.035-0.388c0.024-0.13,0.064-0.248,0.118-0.353c0.054-0.106,0.128-0.192,0.22-0.256
		c0.092-0.065,0.21-0.097,0.353-0.097c0.143,0,0.261,0.028,0.353,0.087c0.092,0.058,0.164,0.143,0.215,0.255
		c0.051,0.113,0.087,0.249,0.107,0.41c0.021,0.16,0.034,0.345,0.041,0.557H100.918z M103.71,72.24v-0.317
		c0-0.423-0.027-0.806-0.081-1.151c-0.055-0.345-0.157-0.637-0.307-0.88c-0.151-0.242-0.356-0.429-0.619-0.562
		c-0.263-0.133-0.599-0.2-1.008-0.2c-0.478,0-0.859,0.079-1.146,0.235c-0.286,0.157-0.506,0.369-0.66,0.635
		c-0.153,0.266-0.255,0.569-0.306,0.91c-0.052,0.341-0.077,0.696-0.077,1.064c0,0.341,0.015,0.687,0.046,1.038
		c0.031,0.351,0.114,0.668,0.251,0.952c0.136,0.283,0.347,0.513,0.634,0.69c0.286,0.177,0.685,0.266,1.197,0.266
		c0.675,0,1.169-0.172,1.483-0.516c0.314-0.345,0.484-0.837,0.512-1.479h-1.269c-0.041,0.348-0.116,0.607-0.225,0.778
		c-0.109,0.171-0.283,0.256-0.522,0.256c-0.13,0-0.238-0.036-0.327-0.108c-0.089-0.071-0.161-0.167-0.215-0.286
		c-0.054-0.12-0.094-0.256-0.118-0.409c-0.023-0.154-0.035-0.312-0.035-0.476v-0.44H103.71z M93.954,74.777h1.473v-3.243h1.719
		v3.243h1.473v-7.304h-1.473v2.793h-1.719v-2.793h-1.473V74.777z"/>
	<path fill="#00549F" d="M188.499,63.177h1.412v-4.542h0.818v-0.962h-0.818v-0.481c0-0.156,0.041-0.269,0.123-0.337
		c0.082-0.069,0.221-0.102,0.419-0.102h0.133c0.062,0,0.109,0.003,0.143,0.01V55.76c-0.259-0.02-0.511-0.03-0.757-0.03
		c-0.225,0-0.429,0.022-0.613,0.066c-0.185,0.044-0.34,0.118-0.466,0.22c-0.127,0.102-0.224,0.238-0.291,0.409
		c-0.069,0.171-0.103,0.379-0.103,0.624v0.624h-0.716v0.962h0.716V63.177z M184.443,59.648c0.013-0.239,0.046-0.443,0.097-0.614
		c0.051-0.171,0.126-0.304,0.225-0.399c0.099-0.095,0.237-0.143,0.415-0.143c0.286,0,0.483,0.15,0.593,0.45
		c0.108,0.299,0.164,0.795,0.164,1.483c0,0.689-0.056,1.184-0.164,1.483c-0.11,0.3-0.307,0.451-0.593,0.451
		c-0.178,0-0.316-0.048-0.415-0.144c-0.099-0.095-0.174-0.228-0.225-0.399c-0.051-0.17-0.084-0.375-0.097-0.613
		c-0.014-0.239-0.02-0.499-0.02-0.778S184.429,59.886,184.443,59.648 M183.113,61.694c0.068,0.361,0.184,0.665,0.348,0.91
		c0.164,0.246,0.385,0.428,0.665,0.547c0.279,0.12,0.63,0.176,1.054,0.169c0.402,0,0.741-0.063,1.018-0.189
		c0.276-0.126,0.499-0.31,0.67-0.552c0.169-0.243,0.292-0.545,0.368-0.906c0.075-0.361,0.112-0.777,0.112-1.248
		c0-0.478-0.034-0.898-0.102-1.263c-0.068-0.366-0.184-0.67-0.348-0.916c-0.163-0.245-0.385-0.427-0.665-0.547
		c-0.28-0.12-0.631-0.176-1.053-0.169c-0.403,0-0.742,0.063-1.018,0.189c-0.276,0.126-0.501,0.31-0.67,0.553
		c-0.171,0.242-0.294,0.544-0.369,0.905s-0.112,0.778-0.112,1.248C183.011,60.909,183.045,61.333,183.113,61.694 M178.397,57.673
		v0.614h-0.02c-0.137-0.286-0.311-0.484-0.522-0.593c-0.212-0.11-0.416-0.164-0.614-0.164c-0.382,0-0.687,0.085-0.915,0.256
		c-0.23,0.171-0.404,0.391-0.522,0.66c-0.12,0.269-0.199,0.57-0.236,0.905c-0.037,0.334-0.056,0.662-0.056,0.982
		c0,1.003,0.141,1.717,0.425,2.143c0.282,0.427,0.704,0.64,1.263,0.64c0.225,0,0.441-0.062,0.65-0.185
		c0.207-0.122,0.383-0.286,0.527-0.491h0.02v0.727c0,0.286-0.058,0.524-0.174,0.711c-0.116,0.187-0.317,0.281-0.603,0.281
		c-0.089,0-0.173-0.013-0.251-0.041c-0.079-0.027-0.152-0.064-0.22-0.112c-0.143-0.103-0.215-0.243-0.215-0.42h-1.35
		c0,0.471,0.161,0.834,0.486,1.09c0.323,0.255,0.785,0.383,1.386,0.383c0.824,0,1.413-0.176,1.765-0.527
		c0.351-0.35,0.526-0.895,0.526-1.631v-5.228H178.397z M176.95,59.663c0.016-0.256,0.052-0.46,0.107-0.614
		c0.054-0.153,0.129-0.264,0.225-0.332c0.095-0.069,0.221-0.103,0.379-0.103c0.279,0,0.471,0.141,0.578,0.42
		c0.105,0.279,0.158,0.754,0.158,1.422c0,0.232-0.012,0.445-0.036,0.639c-0.024,0.195-0.065,0.36-0.122,0.496
		c-0.059,0.136-0.138,0.244-0.236,0.323c-0.099,0.078-0.224,0.117-0.373,0.117c-0.151,0-0.271-0.039-0.363-0.117
		c-0.092-0.079-0.164-0.185-0.215-0.318s-0.086-0.284-0.102-0.455c-0.018-0.171-0.026-0.351-0.026-0.542
		C176.924,60.231,176.932,59.919,176.95,59.663 M170.468,63.177h1.412v-3.652c0-0.607,0.248-0.911,0.746-0.911
		c0.211,0,0.365,0.057,0.461,0.169c0.095,0.113,0.143,0.312,0.143,0.599v3.795h1.412v-4.082c0-0.552-0.122-0.951-0.364-1.197
		c-0.242-0.245-0.588-0.368-1.038-0.368c-0.307,0-0.58,0.063-0.818,0.189c-0.24,0.126-0.434,0.326-0.583,0.599h-0.021v-0.645h-1.35
		V63.177z M168.03,63.177h1.412v-5.504h-1.412V63.177z M168.03,56.998h1.412v-1.207h-1.412V56.998z M165.568,63.177h1.412v-7.304
		h-1.412V63.177z M161.924,59.801v-0.215c0-0.13,0.011-0.259,0.035-0.388c0.024-0.13,0.063-0.248,0.118-0.353
		c0.054-0.106,0.128-0.192,0.22-0.256c0.092-0.065,0.21-0.097,0.353-0.097c0.143,0,0.261,0.028,0.353,0.087
		c0.092,0.058,0.164,0.143,0.215,0.255c0.051,0.113,0.087,0.249,0.107,0.41c0.021,0.16,0.034,0.345,0.041,0.557H161.924z
		 M164.716,60.64v-0.317c0-0.423-0.027-0.806-0.081-1.151c-0.056-0.345-0.158-0.637-0.307-0.88
		c-0.151-0.242-0.357-0.429-0.619-0.562c-0.263-0.133-0.599-0.2-1.008-0.2c-0.478,0-0.859,0.079-1.146,0.235
		c-0.286,0.157-0.506,0.369-0.659,0.635c-0.154,0.266-0.256,0.569-0.307,0.91c-0.051,0.341-0.077,0.696-0.077,1.064
		c0,0.341,0.015,0.687,0.046,1.038c0.031,0.351,0.114,0.668,0.251,0.952c0.136,0.283,0.347,0.513,0.634,0.69
		c0.286,0.177,0.685,0.266,1.197,0.266c0.675,0,1.169-0.172,1.483-0.516c0.313-0.345,0.484-0.837,0.512-1.479h-1.269
		c-0.041,0.348-0.117,0.607-0.225,0.778c-0.109,0.171-0.283,0.256-0.522,0.256c-0.13,0-0.239-0.036-0.327-0.108
		c-0.089-0.071-0.161-0.167-0.215-0.286c-0.055-0.12-0.094-0.256-0.118-0.409c-0.024-0.154-0.035-0.312-0.035-0.476v-0.44H164.716z
		 M156.92,59.07c0.092-0.304,0.292-0.456,0.599-0.456c0.313,0,0.516,0.152,0.608,0.456c0.092,0.303,0.138,0.755,0.138,1.355
		c0,0.601-0.046,1.052-0.138,1.356c-0.092,0.303-0.295,0.455-0.608,0.455c-0.307,0-0.507-0.152-0.599-0.455
		c-0.092-0.304-0.138-0.755-0.138-1.356C156.782,59.825,156.828,59.373,156.92,59.07 M158.327,63.177h1.35v-7.304h-1.412v2.312
		h-0.02c-0.15-0.218-0.319-0.382-0.506-0.491c-0.189-0.11-0.415-0.164-0.681-0.164c-0.58,0-1.006,0.227-1.278,0.68
		c-0.274,0.454-0.41,1.192-0.41,2.215c0,1.023,0.136,1.762,0.41,2.215c0.272,0.453,0.698,0.68,1.278,0.68
		c0.287,0,0.527-0.056,0.721-0.169c0.195-0.112,0.37-0.298,0.527-0.557h0.021V63.177z M151.771,59.648
		c0.014-0.239,0.046-0.443,0.098-0.614c0.051-0.171,0.125-0.304,0.225-0.399c0.098-0.095,0.236-0.143,0.414-0.143
		c0.286,0,0.484,0.15,0.593,0.45c0.109,0.299,0.164,0.795,0.164,1.483c0,0.689-0.055,1.184-0.164,1.483
		c-0.109,0.3-0.307,0.451-0.593,0.451c-0.178,0-0.316-0.048-0.414-0.144c-0.1-0.095-0.174-0.228-0.225-0.399
		c-0.052-0.17-0.084-0.375-0.098-0.613c-0.014-0.239-0.02-0.499-0.02-0.778S151.757,59.886,151.771,59.648 M150.441,61.694
		c0.068,0.361,0.185,0.665,0.348,0.91c0.164,0.246,0.385,0.428,0.665,0.547c0.28,0.12,0.631,0.176,1.054,0.169
		c0.402,0,0.742-0.063,1.018-0.189s0.499-0.31,0.67-0.552c0.17-0.243,0.292-0.545,0.368-0.906c0.075-0.361,0.113-0.777,0.113-1.248
		c0-0.478-0.034-0.898-0.103-1.263c-0.068-0.366-0.184-0.67-0.347-0.916c-0.164-0.245-0.386-0.427-0.665-0.547
		c-0.28-0.12-0.632-0.176-1.054-0.169c-0.403,0-0.742,0.063-1.018,0.189c-0.276,0.126-0.5,0.31-0.67,0.553
		c-0.171,0.242-0.294,0.544-0.368,0.905c-0.076,0.361-0.113,0.778-0.113,1.248C150.339,60.909,150.373,61.333,150.441,61.694
		 M142.951,63.177h1.35v-5.831h0.021l1.299,5.831h1.146l1.299-5.831h0.021v5.831h1.35v-7.304h-2.179l-1.054,5.156h-0.02
		l-1.044-5.156h-2.189V63.177z M136.895,59.801v-0.215c0-0.13,0.012-0.259,0.036-0.388c0.023-0.13,0.063-0.248,0.117-0.353
		c0.055-0.106,0.128-0.192,0.22-0.256c0.092-0.065,0.21-0.097,0.353-0.097s0.261,0.028,0.353,0.087
		c0.092,0.058,0.164,0.143,0.215,0.255c0.051,0.113,0.087,0.249,0.107,0.41c0.021,0.16,0.034,0.345,0.041,0.557H136.895z
		 M139.688,60.64v-0.317c0-0.423-0.028-0.806-0.082-1.151c-0.054-0.345-0.157-0.637-0.307-0.88c-0.15-0.242-0.356-0.429-0.619-0.562
		s-0.598-0.2-1.008-0.2c-0.477,0-0.859,0.079-1.145,0.235c-0.287,0.157-0.507,0.369-0.66,0.635c-0.154,0.266-0.256,0.569-0.307,0.91
		c-0.051,0.341-0.077,0.696-0.077,1.064c0,0.341,0.015,0.687,0.046,1.038c0.031,0.351,0.115,0.668,0.251,0.952
		c0.136,0.283,0.348,0.513,0.634,0.69c0.286,0.177,0.685,0.266,1.197,0.266c0.675,0,1.169-0.172,1.483-0.516
		c0.314-0.345,0.484-0.837,0.512-1.479h-1.269c-0.041,0.348-0.115,0.607-0.225,0.778c-0.109,0.171-0.283,0.256-0.521,0.256
		c-0.13,0-0.239-0.036-0.328-0.108c-0.089-0.071-0.16-0.167-0.215-0.286c-0.054-0.12-0.094-0.256-0.117-0.409
		c-0.024-0.154-0.036-0.312-0.036-0.476v-0.44H139.688z M133.205,63.177h1.412v-7.304h-1.412V63.177z M130.793,61.51
		c0,0.156-0.027,0.288-0.082,0.393c-0.054,0.106-0.124,0.193-0.21,0.261c-0.085,0.069-0.179,0.118-0.281,0.149
		c-0.103,0.03-0.201,0.046-0.297,0.046c-0.19,0-0.327-0.075-0.409-0.225c-0.082-0.151-0.123-0.331-0.123-0.543
		c0-0.245,0.062-0.44,0.184-0.583c0.123-0.143,0.328-0.245,0.614-0.307c0.089-0.02,0.188-0.053,0.297-0.097
		c0.109-0.044,0.212-0.104,0.307-0.179V61.51z M129.483,59.361v-0.153c0-0.218,0.055-0.392,0.164-0.522
		c0.109-0.13,0.273-0.194,0.491-0.194c0.239,0,0.408,0.059,0.506,0.179c0.1,0.119,0.149,0.284,0.149,0.496
		c0,0.184-0.041,0.324-0.123,0.419c-0.082,0.095-0.228,0.171-0.44,0.225l-0.798,0.215c-0.245,0.069-0.455,0.146-0.629,0.235
		c-0.174,0.089-0.317,0.2-0.43,0.333c-0.112,0.133-0.195,0.294-0.25,0.481c-0.055,0.187-0.082,0.411-0.082,0.67
		c0,0.184,0.024,0.37,0.071,0.557c0.048,0.188,0.123,0.356,0.225,0.507c0.103,0.15,0.24,0.273,0.41,0.368
		c0.17,0.095,0.378,0.143,0.624,0.143c0.341,0,0.619-0.048,0.833-0.143c0.215-0.095,0.405-0.286,0.568-0.573h0.021
		c0.02,0.095,0.043,0.192,0.066,0.292c0.025,0.099,0.061,0.192,0.108,0.281h1.35c-0.068-0.164-0.114-0.317-0.138-0.46
		c-0.024-0.144-0.036-0.345-0.036-0.604v-2.895c0-0.246-0.026-0.473-0.077-0.68c-0.051-0.208-0.148-0.387-0.291-0.537
		c-0.143-0.151-0.346-0.266-0.609-0.348c-0.262-0.082-0.601-0.123-1.018-0.123c-0.266,0-0.516,0.029-0.752,0.087
		c-0.235,0.058-0.44,0.153-0.614,0.286c-0.173,0.133-0.312,0.309-0.414,0.527c-0.102,0.218-0.153,0.484-0.153,0.798v0.133H129.483z
		 M127.407,59.658c0-0.655-0.165-1.174-0.497-1.555c-0.33-0.382-0.823-0.573-1.478-0.573c-0.327,0-0.627,0.044-0.9,0.133
		c-0.272,0.089-0.508,0.243-0.706,0.465c-0.197,0.222-0.351,0.519-0.46,0.89c-0.109,0.372-0.164,0.841-0.164,1.407
		c0,0.553,0.045,1.015,0.133,1.386c0.089,0.372,0.22,0.668,0.394,0.89c0.174,0.222,0.393,0.381,0.655,0.476
		c0.262,0.095,0.571,0.143,0.925,0.143c0.751,0,1.288-0.194,1.612-0.583s0.486-0.944,0.486-1.667h-1.351
		c0,0.45-0.054,0.777-0.164,0.982c-0.108,0.204-0.282,0.307-0.521,0.307c-0.157,0-0.285-0.036-0.384-0.108
		c-0.098-0.071-0.175-0.186-0.23-0.343c-0.054-0.156-0.092-0.356-0.113-0.598c-0.02-0.242-0.03-0.534-0.03-0.875
		c0-0.314,0.01-0.59,0.03-0.828c0.021-0.239,0.059-0.435,0.113-0.589c0.055-0.153,0.135-0.269,0.24-0.347
		c0.107-0.079,0.248-0.118,0.425-0.118c0.13,0,0.237,0.033,0.322,0.097c0.086,0.065,0.151,0.151,0.195,0.256
		c0.045,0.105,0.075,0.225,0.092,0.358s0.025,0.264,0.025,0.394H127.407z M118.538,61.377v0.194c0,0.266,0.031,0.506,0.092,0.721
		c0.062,0.215,0.169,0.399,0.322,0.553c0.154,0.153,0.359,0.271,0.619,0.352c0.259,0.082,0.59,0.123,0.993,0.123
		c0.292,0,0.565-0.036,0.818-0.107c0.252-0.072,0.469-0.179,0.65-0.322c0.18-0.144,0.322-0.325,0.424-0.543
		c0.103-0.218,0.154-0.47,0.154-0.757c0-0.416-0.092-0.744-0.277-0.987c-0.184-0.242-0.498-0.438-0.941-0.588l-0.849-0.287
		c-0.239-0.074-0.401-0.166-0.486-0.276c-0.086-0.109-0.128-0.232-0.128-0.368c0-0.197,0.067-0.346,0.2-0.445
		s0.287-0.148,0.465-0.148c0.232,0,0.394,0.066,0.486,0.199c0.092,0.133,0.138,0.343,0.138,0.629h1.269v-0.225
		c0-0.498-0.154-0.883-0.46-1.156c-0.307-0.273-0.782-0.409-1.422-0.409c-0.363,0-0.67,0.044-0.926,0.133
		c-0.256,0.089-0.466,0.208-0.629,0.358c-0.164,0.15-0.284,0.325-0.358,0.527c-0.076,0.201-0.113,0.414-0.113,0.639
		c0,0.389,0.098,0.708,0.297,0.957c0.197,0.248,0.491,0.442,0.879,0.578l0.993,0.358c0.136,0.054,0.256,0.128,0.358,0.22
		c0.102,0.092,0.153,0.227,0.153,0.404c0,0.218-0.065,0.381-0.194,0.491c-0.13,0.109-0.304,0.164-0.522,0.164
		c-0.239,0-0.421-0.074-0.547-0.22c-0.127-0.147-0.189-0.34-0.189-0.578v-0.184H118.538z M114.881,60.824h2.885v-1.207h-2.885
		V60.824z M112.425,63.177h1.412v-5.504h-1.412V63.177z M112.425,56.998h1.412v-1.207h-1.412V56.998z M109.521,57.673h-0.716v0.962
		h0.716v3.151c0,0.279,0.017,0.511,0.052,0.695c0.033,0.184,0.097,0.333,0.189,0.445c0.092,0.113,0.223,0.193,0.394,0.241
		c0.169,0.048,0.395,0.071,0.675,0.071c0.163,0,0.318-0.007,0.465-0.02c0.147-0.013,0.298-0.028,0.456-0.041v-0.982
		c-0.049,0.007-0.1,0.012-0.154,0.015c-0.055,0.003-0.109,0.005-0.164,0.005c-0.204,0-0.339-0.046-0.404-0.138
		s-0.097-0.247-0.097-0.465v-2.977h0.819v-0.962h-0.819v-1.575h-1.412V57.673z M106.738,63.177h1.412v-7.304h-1.412V63.177z
		 M104.361,63.177h1.351v-5.504H104.3v3.652c0,0.607-0.25,0.911-0.747,0.911c-0.212,0-0.365-0.056-0.46-0.169
		c-0.096-0.112-0.143-0.312-0.143-0.598v-3.796h-1.412v4.082c0,0.552,0.121,0.951,0.363,1.197c0.241,0.245,0.588,0.368,1.038,0.368
		c0.307,0,0.579-0.063,0.819-0.189c0.238-0.126,0.432-0.325,0.583-0.598h0.02V63.177z M93.985,63.177h1.35v-5.831h0.021l1.299,5.831
		h1.146l1.299-5.831h0.02v5.831h1.351v-7.304h-2.179l-1.054,5.156h-0.02l-1.044-5.156h-2.189V63.177z"/>
	<path fill="#00549F" d="M190.065,51.578h1.412v-3.304c0-0.184,0.031-0.34,0.092-0.466c0.062-0.125,0.143-0.228,0.246-0.306
		c0.102-0.079,0.215-0.135,0.337-0.169c0.123-0.034,0.246-0.051,0.369-0.051c0.075,0,0.148,0.002,0.22,0.005
		c0.071,0.003,0.145,0.008,0.22,0.015v-1.35c-0.041-0.007-0.083-0.013-0.128-0.016c-0.044-0.003-0.087-0.005-0.128-0.005
		c-0.293,0-0.542,0.08-0.747,0.241c-0.205,0.16-0.379,0.373-0.522,0.639h-0.02v-0.737h-1.351V51.578z M186.34,48.049
		c0.013-0.238,0.046-0.443,0.097-0.614c0.051-0.171,0.126-0.304,0.225-0.399c0.098-0.095,0.236-0.143,0.414-0.143
		c0.287,0,0.484,0.15,0.594,0.45c0.108,0.3,0.163,0.795,0.163,1.483c0,0.689-0.055,1.184-0.163,1.484
		c-0.11,0.299-0.307,0.45-0.594,0.45c-0.178,0-0.316-0.048-0.414-0.143c-0.099-0.096-0.174-0.229-0.225-0.399
		c-0.051-0.171-0.084-0.376-0.097-0.614c-0.015-0.239-0.021-0.498-0.021-0.778C186.319,48.547,186.325,48.287,186.34,48.049
		 M185.01,50.095c0.067,0.361,0.184,0.665,0.348,0.91c0.163,0.246,0.384,0.428,0.665,0.548c0.279,0.119,0.63,0.176,1.053,0.168
		c0.402,0,0.742-0.063,1.018-0.189c0.276-0.126,0.499-0.31,0.67-0.552c0.17-0.243,0.293-0.544,0.368-0.906
		c0.075-0.361,0.113-0.777,0.113-1.248c0-0.477-0.035-0.898-0.102-1.263c-0.069-0.365-0.184-0.67-0.348-0.916
		c-0.164-0.245-0.386-0.427-0.665-0.547c-0.28-0.12-0.631-0.176-1.054-0.169c-0.403,0-0.741,0.064-1.018,0.19
		c-0.276,0.125-0.5,0.309-0.67,0.552c-0.171,0.242-0.293,0.544-0.368,0.905c-0.076,0.361-0.113,0.778-0.113,1.248
		C184.907,49.31,184.941,49.734,185.01,50.095 M182.274,51.578h1.412v-4.542h0.818v-0.962h-0.818v-0.48
		c0-0.157,0.041-0.269,0.123-0.338c0.082-0.068,0.221-0.102,0.419-0.102h0.133c0.062,0,0.109,0.003,0.143,0.01v-1.003
		c-0.259-0.02-0.511-0.03-0.757-0.03c-0.225,0-0.429,0.022-0.613,0.066c-0.185,0.044-0.34,0.118-0.466,0.22
		c-0.127,0.103-0.224,0.239-0.291,0.409c-0.069,0.171-0.103,0.379-0.103,0.624v0.624h-0.716v0.962h0.716V51.578z M175.947,47.471
		c0.092-0.304,0.295-0.455,0.609-0.455c0.307,0,0.506,0.151,0.598,0.455s0.138,0.755,0.138,1.355c0,0.601-0.046,1.052-0.138,1.356
		s-0.291,0.455-0.598,0.455c-0.314,0-0.517-0.151-0.609-0.455s-0.138-0.755-0.138-1.356
		C175.809,48.226,175.855,47.775,175.947,47.471 M174.397,53.379h1.412v-2.312h0.02c0.15,0.218,0.318,0.381,0.507,0.491
		c0.187,0.109,0.414,0.163,0.68,0.163c0.579,0,1.006-0.227,1.279-0.68c0.272-0.453,0.409-1.192,0.409-2.215
		s-0.137-1.761-0.409-2.214c-0.273-0.454-0.7-0.681-1.279-0.681c-0.286,0-0.527,0.057-0.721,0.169
		c-0.195,0.113-0.371,0.299-0.527,0.558h-0.021v-0.584h-1.35V53.379z M171.959,51.578h1.412v-5.504h-1.412V51.578z M171.959,45.399
		h1.412v-1.207h-1.412V45.399z M166.763,51.578h1.412v-3.652c0-0.607,0.249-0.91,0.747-0.91c0.211,0,0.364,0.056,0.46,0.168
		c0.095,0.113,0.144,0.312,0.144,0.599v3.795h1.411v-4.082c0-0.552-0.121-0.951-0.363-1.196c-0.242-0.246-0.588-0.369-1.038-0.369
		c-0.621,0-1.068,0.236-1.34,0.706h-0.021v-2.363h-1.412V51.578z M161.924,49.778v0.194c0,0.266,0.03,0.507,0.092,0.721
		c0.061,0.215,0.168,0.399,0.322,0.553c0.153,0.153,0.36,0.271,0.619,0.353c0.259,0.082,0.59,0.122,0.992,0.122
		c0.294,0,0.566-0.035,0.819-0.107c0.252-0.072,0.468-0.179,0.649-0.322s0.322-0.324,0.425-0.542
		c0.102-0.218,0.153-0.471,0.153-0.757c0-0.417-0.092-0.745-0.276-0.988c-0.184-0.242-0.498-0.437-0.941-0.588l-0.849-0.286
		c-0.239-0.075-0.401-0.167-0.486-0.276c-0.085-0.11-0.128-0.233-0.128-0.369c0-0.197,0.066-0.346,0.199-0.445
		s0.289-0.148,0.466-0.148c0.232,0,0.394,0.066,0.486,0.199c0.092,0.133,0.138,0.343,0.138,0.63h1.268v-0.226
		c0-0.498-0.153-0.882-0.46-1.156c-0.307-0.273-0.78-0.409-1.422-0.409c-0.361,0-0.67,0.044-0.926,0.133
		c-0.255,0.089-0.465,0.208-0.629,0.358c-0.164,0.151-0.283,0.326-0.358,0.527c-0.075,0.202-0.112,0.414-0.112,0.64
		c0,0.388,0.099,0.707,0.296,0.956c0.198,0.249,0.491,0.442,0.88,0.578l0.992,0.358c0.136,0.054,0.256,0.128,0.358,0.22
		c0.103,0.092,0.154,0.227,0.154,0.404c0,0.218-0.065,0.382-0.195,0.491c-0.129,0.11-0.303,0.164-0.521,0.164
		c-0.239,0-0.422-0.074-0.548-0.22c-0.125-0.146-0.189-0.34-0.189-0.578v-0.184H161.924z M158.551,51.578h1.411v-3.304
		c0-0.184,0.031-0.34,0.093-0.466c0.061-0.125,0.143-0.228,0.245-0.306c0.102-0.079,0.215-0.135,0.338-0.169
		c0.122-0.034,0.245-0.051,0.368-0.051c0.075,0,0.148,0.002,0.22,0.005c0.072,0.003,0.145,0.008,0.22,0.015v-1.35
		c-0.041-0.007-0.084-0.013-0.128-0.016s-0.087-0.005-0.128-0.005c-0.293,0-0.542,0.08-0.747,0.241
		c-0.204,0.16-0.378,0.373-0.521,0.639h-0.021v-0.737h-1.35V51.578z M154.824,48.049c0.013-0.238,0.046-0.443,0.097-0.614
		c0.051-0.171,0.126-0.304,0.225-0.399c0.099-0.095,0.238-0.143,0.415-0.143c0.286,0,0.483,0.15,0.593,0.45
		c0.109,0.3,0.164,0.795,0.164,1.483c0,0.689-0.055,1.184-0.164,1.484c-0.11,0.299-0.307,0.45-0.593,0.45
		c-0.177,0-0.316-0.048-0.415-0.143c-0.099-0.096-0.174-0.229-0.225-0.399c-0.051-0.171-0.084-0.376-0.097-0.614
		c-0.013-0.239-0.02-0.498-0.02-0.778C154.804,48.547,154.811,48.287,154.824,48.049 M153.494,50.095
		c0.069,0.361,0.184,0.665,0.348,0.91c0.164,0.246,0.386,0.428,0.665,0.548c0.279,0.119,0.631,0.176,1.054,0.168
		c0.402,0,0.741-0.063,1.017-0.189c0.277-0.126,0.5-0.31,0.67-0.552c0.171-0.243,0.294-0.544,0.369-0.906
		c0.074-0.361,0.112-0.777,0.112-1.248c0-0.477-0.033-0.898-0.102-1.263c-0.069-0.365-0.184-0.67-0.348-0.916
		c-0.164-0.245-0.386-0.427-0.665-0.547c-0.279-0.12-0.631-0.176-1.053-0.169c-0.403,0-0.742,0.064-1.018,0.19
		c-0.277,0.125-0.5,0.309-0.67,0.552c-0.171,0.242-0.294,0.544-0.369,0.905c-0.074,0.361-0.112,0.778-0.112,1.248
		C153.392,49.31,153.426,49.734,153.494,50.095 M148.716,49.778v0.194c0,0.266,0.03,0.507,0.092,0.721
		c0.061,0.215,0.168,0.399,0.322,0.553c0.153,0.153,0.36,0.271,0.619,0.353c0.26,0.082,0.59,0.122,0.992,0.122
		c0.294,0,0.567-0.035,0.819-0.107c0.252-0.072,0.469-0.179,0.649-0.322c0.181-0.143,0.322-0.324,0.425-0.542
		c0.102-0.218,0.153-0.471,0.153-0.757c0-0.417-0.092-0.745-0.276-0.988c-0.184-0.242-0.497-0.437-0.941-0.588l-0.849-0.286
		c-0.239-0.075-0.4-0.167-0.486-0.276c-0.085-0.11-0.128-0.233-0.128-0.369c0-0.197,0.066-0.346,0.199-0.445
		c0.133-0.099,0.289-0.148,0.466-0.148c0.232,0,0.394,0.066,0.486,0.199c0.092,0.133,0.138,0.343,0.138,0.63h1.268v-0.226
		c0-0.498-0.153-0.882-0.46-1.156c-0.307-0.273-0.781-0.409-1.422-0.409c-0.361,0-0.67,0.044-0.926,0.133
		c-0.256,0.089-0.465,0.208-0.629,0.358c-0.164,0.151-0.282,0.326-0.358,0.527c-0.075,0.202-0.112,0.414-0.112,0.64
		c0,0.388,0.099,0.707,0.296,0.956c0.199,0.249,0.491,0.442,0.88,0.578l0.992,0.358c0.137,0.054,0.256,0.128,0.358,0.22
		c0.103,0.092,0.154,0.227,0.154,0.404c0,0.218-0.065,0.382-0.195,0.491c-0.128,0.11-0.302,0.164-0.521,0.164
		c-0.239,0-0.421-0.074-0.548-0.22c-0.125-0.146-0.189-0.34-0.189-0.578v-0.184H148.716z M144.047,49.778v0.194
		c0,0.266,0.03,0.507,0.092,0.721c0.061,0.215,0.168,0.399,0.322,0.553c0.153,0.153,0.36,0.271,0.619,0.353
		c0.26,0.082,0.59,0.122,0.992,0.122c0.294,0,0.567-0.035,0.819-0.107c0.252-0.072,0.469-0.179,0.649-0.322
		c0.181-0.143,0.322-0.324,0.425-0.542c0.102-0.218,0.153-0.471,0.153-0.757c0-0.417-0.092-0.745-0.276-0.988
		c-0.184-0.242-0.497-0.437-0.941-0.588l-0.849-0.286c-0.239-0.075-0.4-0.167-0.486-0.276c-0.085-0.11-0.128-0.233-0.128-0.369
		c0-0.197,0.066-0.346,0.199-0.445s0.289-0.148,0.466-0.148c0.232,0,0.394,0.066,0.486,0.199s0.138,0.343,0.138,0.63h1.268v-0.226
		c0-0.498-0.153-0.882-0.46-1.156c-0.307-0.273-0.78-0.409-1.422-0.409c-0.361,0-0.67,0.044-0.926,0.133
		c-0.255,0.089-0.465,0.208-0.629,0.358c-0.164,0.151-0.282,0.326-0.358,0.527c-0.075,0.202-0.112,0.414-0.112,0.64
		c0,0.388,0.099,0.707,0.296,0.956c0.199,0.249,0.491,0.442,0.88,0.578l0.992,0.358c0.137,0.054,0.256,0.128,0.358,0.22
		c0.103,0.092,0.154,0.227,0.154,0.404c0,0.218-0.065,0.382-0.195,0.491c-0.128,0.11-0.302,0.164-0.521,0.164
		c-0.239,0-0.421-0.074-0.548-0.22c-0.125-0.146-0.189-0.34-0.189-0.578v-0.184H144.047z M140.665,48.202v-0.214
		c0-0.13,0.012-0.259,0.035-0.389c0.025-0.13,0.064-0.248,0.118-0.353c0.055-0.106,0.128-0.191,0.22-0.256
		c0.092-0.064,0.21-0.097,0.353-0.097s0.261,0.029,0.353,0.087c0.092,0.058,0.164,0.143,0.215,0.256
		c0.051,0.112,0.087,0.248,0.107,0.409c0.021,0.16,0.035,0.346,0.041,0.557H140.665z M143.457,49.041v-0.317
		c0-0.422-0.026-0.806-0.081-1.151c-0.055-0.345-0.157-0.637-0.307-0.88c-0.15-0.242-0.356-0.429-0.619-0.562
		c-0.262-0.133-0.599-0.2-1.008-0.2c-0.477,0-0.859,0.079-1.146,0.236c-0.286,0.156-0.506,0.368-0.66,0.634
		c-0.153,0.266-0.255,0.57-0.306,0.91c-0.052,0.341-0.077,0.696-0.077,1.064c0,0.341,0.015,0.688,0.046,1.039
		c0.031,0.35,0.114,0.668,0.251,0.951c0.137,0.283,0.347,0.514,0.634,0.69c0.286,0.177,0.685,0.266,1.197,0.266
		c0.675,0,1.17-0.171,1.483-0.516c0.314-0.345,0.485-0.837,0.512-1.478h-1.269c-0.041,0.347-0.116,0.606-0.225,0.777
		c-0.108,0.171-0.282,0.256-0.522,0.256c-0.129,0-0.238-0.036-0.327-0.108c-0.088-0.071-0.16-0.166-0.215-0.286
		c-0.054-0.12-0.093-0.256-0.118-0.409c-0.023-0.154-0.035-0.312-0.035-0.476v-0.44H143.457z M136.626,51.578h1.411v-4.542h0.819
		v-0.962h-0.819v-0.48c0-0.157,0.041-0.269,0.123-0.338c0.082-0.068,0.221-0.102,0.42-0.102h0.133c0.061,0,0.108,0.003,0.143,0.01
		v-1.003c-0.26-0.02-0.512-0.03-0.757-0.03c-0.225,0-0.43,0.022-0.614,0.066c-0.184,0.044-0.34,0.118-0.465,0.22
		c-0.127,0.103-0.224,0.239-0.292,0.409c-0.068,0.171-0.102,0.379-0.102,0.624v0.624h-0.716v0.962h0.716V51.578z M132.57,48.049
		c0.013-0.238,0.046-0.443,0.097-0.614c0.051-0.171,0.126-0.304,0.225-0.399c0.098-0.095,0.236-0.143,0.414-0.143
		c0.287,0,0.484,0.15,0.593,0.45c0.109,0.3,0.164,0.795,0.164,1.483c0,0.689-0.055,1.184-0.164,1.484
		c-0.109,0.299-0.306,0.45-0.593,0.45c-0.178,0-0.316-0.048-0.414-0.143c-0.099-0.096-0.174-0.229-0.225-0.399
		c-0.051-0.171-0.084-0.376-0.097-0.614c-0.015-0.239-0.021-0.498-0.021-0.778C132.549,48.547,132.555,48.287,132.57,48.049
		 M131.24,50.095c0.067,0.361,0.184,0.665,0.347,0.91c0.164,0.246,0.385,0.428,0.665,0.548c0.28,0.119,0.631,0.176,1.054,0.168
		c0.402,0,0.742-0.063,1.018-0.189c0.276-0.126,0.499-0.31,0.67-0.552c0.17-0.243,0.293-0.544,0.368-0.906
		c0.075-0.361,0.113-0.777,0.113-1.248c0-0.477-0.035-0.898-0.102-1.263c-0.069-0.365-0.185-0.67-0.348-0.916
		c-0.164-0.245-0.386-0.427-0.665-0.547c-0.28-0.12-0.631-0.176-1.054-0.169c-0.403,0-0.742,0.064-1.018,0.19
		c-0.276,0.125-0.5,0.309-0.67,0.552c-0.171,0.242-0.293,0.544-0.368,0.905c-0.076,0.361-0.113,0.778-0.113,1.248
		C131.137,49.31,131.171,49.734,131.24,50.095 M127.779,51.578h1.412v-3.304c0-0.184,0.03-0.34,0.092-0.466
		c0.061-0.125,0.143-0.228,0.245-0.306c0.102-0.079,0.215-0.135,0.338-0.169s0.245-0.051,0.368-0.051
		c0.075,0,0.148,0.002,0.22,0.005c0.072,0.003,0.144,0.008,0.22,0.015v-1.35c-0.041-0.007-0.084-0.013-0.128-0.016
		c-0.045-0.003-0.087-0.005-0.128-0.005c-0.293,0-0.542,0.08-0.747,0.241c-0.204,0.16-0.378,0.373-0.521,0.639h-0.021v-0.737h-1.35
		V51.578z M122.448,51.578h1.473v-2.915h0.788c0.348,0,0.665-0.044,0.951-0.133c0.287-0.089,0.53-0.222,0.732-0.399
		c0.2-0.177,0.358-0.404,0.47-0.681c0.113-0.276,0.169-0.605,0.169-0.987c0-0.273-0.035-0.54-0.102-0.803
		c-0.069-0.263-0.181-0.496-0.338-0.701c-0.157-0.204-0.363-0.37-0.619-0.496c-0.256-0.126-0.572-0.189-0.946-0.189h-2.578V51.578z
		 M123.921,45.358h0.614c0.368,0,0.63,0.096,0.788,0.287c0.156,0.191,0.235,0.47,0.235,0.839c0,0.375-0.091,0.651-0.271,0.828
		c-0.181,0.177-0.419,0.266-0.711,0.266h-0.655V45.358z M116.545,51.578h1.412v-3.304c0-0.184,0.031-0.34,0.092-0.466
		c0.061-0.125,0.143-0.228,0.246-0.306c0.102-0.079,0.214-0.135,0.337-0.169s0.246-0.051,0.368-0.051
		c0.075,0,0.149,0.002,0.22,0.005c0.072,0.003,0.145,0.008,0.22,0.015v-1.35c-0.041-0.007-0.084-0.013-0.128-0.016
		c-0.045-0.003-0.087-0.005-0.127-0.005c-0.294,0-0.543,0.08-0.747,0.241c-0.205,0.16-0.379,0.373-0.522,0.639h-0.02v-0.737h-1.351
		V51.578z M112.818,48.049c0.014-0.238,0.046-0.443,0.098-0.614c0.051-0.171,0.125-0.304,0.225-0.399
		c0.098-0.095,0.236-0.143,0.414-0.143c0.286,0,0.484,0.15,0.593,0.45c0.109,0.3,0.164,0.795,0.164,1.483
		c0,0.689-0.055,1.184-0.164,1.484c-0.109,0.299-0.307,0.45-0.593,0.45c-0.178,0-0.316-0.048-0.414-0.143
		c-0.1-0.096-0.174-0.229-0.225-0.399c-0.052-0.171-0.084-0.376-0.098-0.614c-0.014-0.239-0.02-0.498-0.02-0.778
		C112.798,48.547,112.804,48.287,112.818,48.049 M111.489,50.095c0.067,0.361,0.184,0.665,0.347,0.91
		c0.164,0.246,0.385,0.428,0.665,0.548c0.28,0.119,0.63,0.176,1.054,0.168c0.402,0,0.742-0.063,1.018-0.189
		c0.276-0.126,0.499-0.31,0.67-0.552c0.17-0.243,0.293-0.544,0.368-0.906c0.075-0.361,0.113-0.777,0.113-1.248
		c0-0.477-0.035-0.898-0.103-1.263c-0.068-0.365-0.184-0.67-0.347-0.916c-0.164-0.245-0.386-0.427-0.665-0.547
		c-0.281-0.12-0.632-0.176-1.054-0.169c-0.403,0-0.742,0.064-1.018,0.19c-0.276,0.125-0.5,0.309-0.67,0.552
		c-0.171,0.242-0.294,0.544-0.368,0.905c-0.076,0.361-0.113,0.778-0.113,1.248C111.386,49.31,111.42,49.734,111.489,50.095
		 M109.108,51.578h1.412v-5.504h-1.412V51.578z M109.108,45.399h1.412v-1.207h-1.412V45.399z M103.912,51.578h1.412v-3.652
		c0-0.607,0.248-0.91,0.747-0.91c0.211,0,0.365,0.056,0.46,0.168c0.095,0.113,0.143,0.312,0.143,0.599v3.795h1.412v-4.082
		c0-0.552-0.121-0.951-0.363-1.196c-0.243-0.246-0.588-0.369-1.039-0.369c-0.306,0-0.58,0.064-0.818,0.19
		c-0.238,0.125-0.433,0.325-0.583,0.598h-0.02v-0.645h-1.351V51.578z M101.561,51.578h1.351v-5.504H101.5v3.653
		c0,0.606-0.249,0.91-0.747,0.91c-0.212,0-0.365-0.056-0.46-0.169c-0.095-0.112-0.143-0.312-0.143-0.598v-3.796h-1.412v4.082
		c0,0.553,0.121,0.952,0.363,1.197c0.242,0.246,0.588,0.368,1.038,0.368c0.307,0,0.58-0.063,0.819-0.189
		c0.238-0.126,0.432-0.325,0.583-0.598h0.02V51.578z M96.256,44.274v5.217c0,0.389-0.043,0.678-0.128,0.865
		s-0.261,0.281-0.527,0.281s-0.442-0.094-0.527-0.281c-0.084-0.187-0.127-0.476-0.127-0.865v-0.225h-1.351v0.317
		c0,0.287,0.028,0.56,0.082,0.819s0.156,0.486,0.302,0.68c0.146,0.194,0.345,0.35,0.593,0.466c0.249,0.115,0.568,0.173,0.957,0.173
		c0.743,0,1.296-0.17,1.657-0.511s0.542-0.9,0.542-1.678v-5.258H96.256z"/>
</g>
</svg>
